<svg xmlns="http://www.w3.org/2000/svg" xmlns:xlink="http://www.w3.org/1999/xlink" width="1600" zoomAndPan="magnify" viewBox="0 0 1200 675.000002" height="900" preserveAspectRatio="xMidYMid meet" version="1.0"><defs><g/><clipPath id="8c49a3f562"><path d="M 82 0.871094 L 221 0.871094 L 221 449 L 82 449 Z M 82 0.871094 " clip-rule="nonzero"/></clipPath><clipPath id="0a8485ef77"><path d="M 1.042969 151 L 150 151 L 150 310 L 1.042969 310 Z M 1.042969 151 " clip-rule="nonzero"/></clipPath><clipPath id="01ddcfa07f"><rect x="0" width="1112" y="0" height="450"/></clipPath></defs><g transform="matrix(1, 0, 0, 1, 23, 112)"><g clip-path="url(#01ddcfa07f)"><g clip-path="url(#8c49a3f562)"><path fill="#10588c" d="M 157.035156 0.976562 C 244.78125 129.195312 240.773438 299.3125 152.808594 448.976562 C 207.574219 302.871094 186.480469 148.367188 82.960938 37.75 Z M 157.035156 0.976562 " fill-opacity="1" fill-rule="evenodd"/></g><path fill="#5ce1e6" d="M 86.210938 72.203125 C 161.585938 156.214844 186.925781 266.34375 165.492188 376.800781 C 160.890625 290.203125 125.714844 208.5625 58.242188 145.148438 C 46.585938 134.191406 34.265625 124.066406 21.363281 114.769531 Z M 86.210938 72.203125 " fill-opacity="1" fill-rule="evenodd"/><g clip-path="url(#0a8485ef77)"><path fill="#0097b2" d="M 37.765625 151.679688 C 49.796875 160.613281 61.21875 170.398438 71.960938 181.054688 C 109.074219 217.867188 134.71875 261.691406 149.414062 309.691406 C 138.023438 292.453125 124.765625 276.179688 109.558594 261.097656 C 78.496094 230.289062 41.726562 206.691406 1.042969 190.128906 Z M 37.765625 151.679688 " fill-opacity="1" fill-rule="evenodd"/></g><g fill="#000000" fill-opacity="1"><g transform="translate(294.158629, 223.062179)"><g><path d="M 70.640625 2.828125 C 65.179688 2.828125 59.96875 1.851562 55 -0.09375 C 50.03125 -2.039062 45.582031 -4.800781 41.65625 -8.375 C 37.726562 -11.945312 34.5625 -16.203125 32.15625 -21.140625 L 32.15625 0 L 16.078125 0 L 16.078125 -137.1875 L 32.828125 -137.1875 L 32.828125 -92.078125 L 32.546875 -78.4375 C 34.753906 -82.914062 37.722656 -86.941406 41.453125 -90.515625 C 45.191406 -94.085938 49.53125 -96.910156 54.46875 -98.984375 C 59.40625 -101.066406 64.734375 -102.109375 70.453125 -102.109375 C 77.460938 -102.109375 83.9375 -100.757812 89.875 -98.0625 C 95.820312 -95.375 101.019531 -91.625 105.46875 -86.8125 C 109.914062 -82.007812 113.359375 -76.441406 115.796875 -70.109375 C 118.234375 -63.773438 119.453125 -56.96875 119.453125 -49.6875 C 119.453125 -42.414062 118.21875 -35.597656 115.75 -29.234375 C 113.28125 -22.867188 109.835938 -17.28125 105.421875 -12.46875 C 101.003906 -7.664062 95.835938 -3.914062 89.921875 -1.21875 C 84.015625 1.476562 77.585938 2.828125 70.640625 2.828125 Z M 67.71875 -12.765625 C 72.519531 -12.765625 77.03125 -13.65625 81.25 -15.4375 C 85.476562 -17.226562 89.195312 -19.765625 92.40625 -23.046875 C 95.625 -26.328125 98.160156 -30.222656 100.015625 -34.734375 C 101.867188 -39.242188 102.796875 -44.226562 102.796875 -49.6875 C 102.796875 -55.082031 101.882812 -60.019531 100.0625 -64.5 C 98.25 -68.976562 95.734375 -72.859375 92.515625 -76.140625 C 89.296875 -79.421875 85.578125 -81.96875 81.359375 -83.78125 C 77.140625 -85.601562 72.59375 -86.515625 67.71875 -86.515625 C 62.84375 -86.515625 58.296875 -85.570312 54.078125 -83.6875 C 49.859375 -81.8125 46.15625 -79.179688 42.96875 -75.796875 C 39.78125 -72.421875 37.273438 -68.507812 35.453125 -64.0625 C 33.640625 -59.613281 32.734375 -54.820312 32.734375 -49.6875 C 32.734375 -44.425781 33.640625 -39.535156 35.453125 -35.015625 C 37.273438 -30.503906 39.8125 -26.59375 43.0625 -23.28125 C 46.3125 -19.96875 50.046875 -17.382812 54.265625 -15.53125 C 58.492188 -13.6875 62.976562 -12.765625 67.71875 -12.765625 Z M 67.71875 -12.765625 "/></g></g></g><g fill="#000000" fill-opacity="1"><g transform="translate(412.07436, 223.062179)"><g><path d="M 32.828125 0 L 16.078125 0 L 16.078125 -137.390625 L 32.828125 -137.390625 Z M 32.828125 0 "/></g></g></g><g fill="#000000" fill-opacity="1"><g transform="translate(449.412503, 223.062179)"><g><path d="M 58.75 2.828125 C 52.125 2.828125 46.050781 1.882812 40.53125 0 C 35.007812 -1.882812 30.21875 -4.804688 26.15625 -8.765625 C 22.101562 -12.734375 18.953125 -17.816406 16.703125 -24.015625 C 14.460938 -30.222656 13.34375 -37.644531 13.34375 -46.28125 L 13.34375 -99.390625 L 30.015625 -99.390625 L 30.015625 -46.765625 C 30.015625 -35.597656 32.5 -27.171875 37.46875 -21.484375 C 42.4375 -15.796875 49.46875 -12.953125 58.5625 -12.953125 C 67.71875 -12.953125 74.765625 -15.796875 79.703125 -21.484375 C 84.640625 -27.171875 87.109375 -35.597656 87.109375 -46.765625 L 87.109375 -99.390625 L 103.859375 -99.390625 L 103.859375 -46.28125 C 103.859375 -37.644531 102.738281 -30.222656 100.5 -24.015625 C 98.257812 -17.816406 95.109375 -12.734375 91.046875 -8.765625 C 86.992188 -4.804688 82.222656 -1.882812 76.734375 0 C 71.242188 1.882812 65.25 2.828125 58.75 2.828125 Z M 58.75 2.828125 "/></g></g></g><g fill="#000000" fill-opacity="1"><g transform="translate(555.051601, 223.062179)"><g><path d="M 107.375 -52.125 C 107.375 -51.28125 107.359375 -50.382812 107.328125 -49.4375 C 107.296875 -48.5 107.210938 -47.125 107.078125 -45.3125 L 24.65625 -45.3125 C 25.363281 -38.6875 27.304688 -32.9375 30.484375 -28.0625 C 33.671875 -23.1875 37.664062 -19.429688 42.46875 -16.796875 C 47.28125 -14.171875 52.414062 -12.859375 57.875 -12.859375 C 64.5625 -12.859375 70.273438 -14.300781 75.015625 -17.1875 C 79.765625 -20.082031 83.242188 -24.320312 85.453125 -29.90625 L 104.25 -29.90625 C 102.820312 -25.363281 100.695312 -21.109375 97.875 -17.140625 C 95.050781 -13.179688 91.640625 -9.722656 87.640625 -6.765625 C 83.648438 -3.816406 79.171875 -1.5 74.203125 0.1875 C 69.234375 1.882812 63.921875 2.734375 58.265625 2.734375 C 51.054688 2.734375 44.378906 1.382812 38.234375 -1.3125 C 32.097656 -4.007812 26.738281 -7.757812 22.15625 -12.5625 C 17.582031 -17.375 14.03125 -22.945312 11.5 -29.28125 C 8.96875 -35.613281 7.703125 -42.414062 7.703125 -49.6875 C 7.703125 -56.96875 8.96875 -63.773438 11.5 -70.109375 C 14.03125 -76.441406 17.582031 -82.007812 22.15625 -86.8125 C 26.738281 -91.625 32.097656 -95.390625 38.234375 -98.109375 C 44.378906 -100.835938 51.054688 -102.203125 58.265625 -102.203125 C 65.410156 -102.203125 71.988281 -100.867188 78 -98.203125 C 84.007812 -95.546875 89.203125 -91.878906 93.578125 -87.203125 C 97.960938 -82.523438 101.359375 -77.179688 103.765625 -71.171875 C 106.171875 -65.160156 107.375 -58.8125 107.375 -52.125 Z M 25.4375 -60.125 L 90.21875 -60.125 C 89.957031 -63.625 88.929688 -66.960938 87.140625 -70.140625 C 85.359375 -73.328125 83.003906 -76.140625 80.078125 -78.578125 C 77.160156 -81.015625 73.800781 -82.929688 70 -84.328125 C 66.207031 -85.722656 62.195312 -86.421875 57.96875 -86.421875 C 53.03125 -86.421875 48.320312 -85.414062 43.84375 -83.40625 C 39.363281 -81.394531 35.5 -78.4375 32.25 -74.53125 C 29 -70.632812 26.726562 -65.832031 25.4375 -60.125 Z M 25.4375 -60.125 "/></g></g></g><g fill="#000000" fill-opacity="1"><g transform="translate(656.988222, 223.062179)"><g><path d="M 72.78125 0 L 54.46875 0 C 50.695312 0 46.957031 -0.484375 43.25 -1.453125 C 39.550781 -2.429688 36.191406 -4.21875 33.171875 -6.8125 C 30.148438 -9.414062 27.726562 -13.132812 25.90625 -17.96875 C 24.09375 -22.8125 23.1875 -29.097656 23.1875 -36.828125 L 23.1875 -84.671875 L 1.078125 -84.671875 L 1.078125 -99.390625 L 23.1875 -99.390625 L 23.1875 -128.90625 L 39.953125 -129 L 39.953125 -99.390625 L 72.78125 -99.390625 L 72.78125 -84.671875 L 39.953125 -84.671875 L 39.953125 -36.046875 C 39.953125 -31.441406 40.453125 -27.691406 41.453125 -24.796875 C 42.460938 -21.910156 43.828125 -19.703125 45.546875 -18.171875 C 47.273438 -16.640625 49.191406 -15.597656 51.296875 -15.046875 C 53.410156 -14.492188 55.570312 -14.21875 57.78125 -14.21875 L 72.78125 -14.21875 Z M 72.78125 0 "/></g></g></g><g fill="#000000" fill-opacity="1"><g transform="translate(723.751313, 223.062179)"><g><path d="M 59.34375 2.828125 C 52 2.828125 45.191406 1.476562 38.921875 -1.21875 C 32.648438 -3.914062 27.175781 -7.664062 22.5 -12.46875 C 17.820312 -17.28125 14.1875 -22.867188 11.59375 -29.234375 C 9 -35.597656 7.703125 -42.414062 7.703125 -49.6875 C 7.703125 -56.96875 9 -63.773438 11.59375 -70.109375 C 14.1875 -76.441406 17.804688 -82.007812 22.453125 -86.8125 C 27.097656 -91.625 32.554688 -95.390625 38.828125 -98.109375 C 45.097656 -100.835938 51.9375 -102.203125 59.34375 -102.203125 C 66.75 -102.203125 73.597656 -100.851562 79.890625 -98.15625 C 86.191406 -95.46875 91.679688 -91.71875 96.359375 -86.90625 C 101.035156 -82.101562 104.671875 -76.519531 107.265625 -70.15625 C 109.867188 -63.789062 111.171875 -56.96875 111.171875 -49.6875 C 111.171875 -42.414062 109.867188 -35.597656 107.265625 -29.234375 C 104.671875 -22.867188 101.035156 -17.28125 96.359375 -12.46875 C 91.679688 -7.664062 86.191406 -3.914062 79.890625 -1.21875 C 73.597656 1.476562 66.75 2.828125 59.34375 2.828125 Z M 59.53125 -12.953125 C 64.46875 -12.953125 69.046875 -13.863281 73.265625 -15.6875 C 77.492188 -17.507812 81.195312 -20.078125 84.375 -23.390625 C 87.5625 -26.703125 90.03125 -30.597656 91.78125 -35.078125 C 93.539062 -39.554688 94.421875 -44.425781 94.421875 -49.6875 C 94.421875 -54.945312 93.539062 -59.800781 91.78125 -64.25 C 90.03125 -68.707031 87.5625 -72.59375 84.375 -75.90625 C 81.195312 -79.21875 77.492188 -81.796875 73.265625 -83.640625 C 69.046875 -85.492188 64.46875 -86.421875 59.53125 -86.421875 C 54.59375 -86.421875 49.992188 -85.492188 45.734375 -83.640625 C 41.484375 -81.796875 37.765625 -79.21875 34.578125 -75.90625 C 31.398438 -72.59375 28.914062 -68.707031 27.125 -64.25 C 25.34375 -59.800781 24.453125 -54.945312 24.453125 -49.6875 C 24.453125 -44.425781 25.34375 -39.554688 27.125 -35.078125 C 28.914062 -30.597656 31.398438 -26.703125 34.578125 -23.390625 C 37.765625 -20.078125 41.484375 -17.507812 45.734375 -15.6875 C 49.992188 -13.863281 54.59375 -12.953125 59.53125 -12.953125 Z M 59.53125 -12.953125 "/></g></g></g><g fill="#000000" fill-opacity="1"><g transform="translate(831.046782, 223.062179)"><g><path d="M 32.9375 0 L 16.078125 0 L 16.078125 -99.390625 L 32.25 -99.390625 L 32.25 -77.171875 C 34.71875 -84.054688 38.566406 -89.476562 43.796875 -93.4375 C 49.023438 -97.40625 55.242188 -99.390625 62.453125 -99.390625 L 72.109375 -99.390625 L 72.109375 -84.671875 L 63.328125 -84.671875 C 57.546875 -84.671875 52.347656 -83.175781 47.734375 -80.1875 C 43.128906 -77.195312 39.507812 -72.875 36.875 -67.21875 C 34.25 -61.570312 32.9375 -54.753906 32.9375 -46.765625 Z M 32.9375 0 "/></g></g></g><g fill="#000000" fill-opacity="1"><g transform="translate(895.081733, 223.062179)"><g><path d="M 58.46875 2.828125 C 51.25 2.828125 44.570312 1.460938 38.4375 -1.265625 C 32.300781 -3.992188 26.925781 -7.757812 22.3125 -12.5625 C 17.695312 -17.375 14.109375 -22.945312 11.546875 -29.28125 C 8.984375 -35.613281 7.703125 -42.414062 7.703125 -49.6875 C 7.703125 -56.96875 8.984375 -63.773438 11.546875 -70.109375 C 14.109375 -76.441406 17.695312 -82.007812 22.3125 -86.8125 C 26.925781 -91.625 32.300781 -95.390625 38.4375 -98.109375 C 44.570312 -100.835938 51.25 -102.203125 58.46875 -102.203125 C 66.382812 -102.203125 73.554688 -100.675781 79.984375 -97.625 C 86.421875 -94.570312 91.894531 -90.398438 96.40625 -85.109375 C 100.925781 -79.816406 104.160156 -73.726562 106.109375 -66.84375 L 88.859375 -66.84375 C 86.265625 -73.269531 82.253906 -78.140625 76.828125 -81.453125 C 71.398438 -84.765625 65.3125 -86.421875 58.5625 -86.421875 C 54.207031 -86.421875 50 -85.578125 45.9375 -83.890625 C 41.875 -82.203125 38.21875 -79.765625 34.96875 -76.578125 C 31.726562 -73.398438 29.164062 -69.535156 27.28125 -64.984375 C 25.394531 -60.441406 24.453125 -55.34375 24.453125 -49.6875 C 24.453125 -43.976562 25.410156 -38.847656 27.328125 -34.296875 C 29.242188 -29.753906 31.828125 -25.890625 35.078125 -22.703125 C 38.328125 -19.515625 41.976562 -17.078125 46.03125 -15.390625 C 50.09375 -13.703125 54.269531 -12.859375 58.5625 -12.859375 C 65.25 -12.859375 71.320312 -14.5625 76.78125 -17.96875 C 82.238281 -21.382812 86.265625 -26.503906 88.859375 -33.328125 L 106.015625 -33.328125 C 104.128906 -26.179688 100.941406 -19.894531 96.453125 -14.46875 C 91.972656 -9.039062 86.484375 -4.800781 79.984375 -1.75 C 73.492188 1.300781 66.320312 2.828125 58.46875 2.828125 Z M 58.46875 2.828125 "/></g></g></g><g fill="#000000" fill-opacity="1"><g transform="translate(995.849151, 223.062179)"><g><path d="M 32.828125 0 L 16.078125 0 L 16.078125 -137.1875 L 32.828125 -137.1875 L 32.828125 -91.109375 L 32.546875 -80.484375 C 34.554688 -84.765625 37.316406 -88.546875 40.828125 -91.828125 C 44.335938 -95.109375 48.476562 -97.65625 53.25 -99.46875 C 58.019531 -101.289062 63.203125 -102.203125 68.796875 -102.203125 C 81.972656 -102.203125 91.972656 -98.125 98.796875 -89.96875 C 105.617188 -81.820312 109.03125 -69.789062 109.03125 -53.875 L 109.03125 0 L 92.265625 0 L 92.265625 -53.59375 C 92.265625 -65.019531 89.796875 -73.363281 84.859375 -78.625 C 79.921875 -83.882812 73.132812 -86.515625 64.5 -86.515625 C 60.34375 -86.515625 56.363281 -85.6875 52.5625 -84.03125 C 48.757812 -82.375 45.378906 -80.019531 42.421875 -76.96875 C 39.472656 -73.914062 37.132812 -70.296875 35.40625 -66.109375 C 33.6875 -61.921875 32.828125 -57.289062 32.828125 -52.21875 Z M 32.828125 0 "/></g></g></g><g fill="#000000" fill-opacity="1"><g transform="translate(667.732745, 305.940771)"><g><path d="M 29.234375 1.40625 C 25.628906 1.40625 22.289062 0.726562 19.21875 -0.625 C 16.144531 -1.988281 13.457031 -3.875 11.15625 -6.28125 C 8.851562 -8.6875 7.054688 -11.472656 5.765625 -14.640625 C 4.484375 -17.804688 3.84375 -21.207031 3.84375 -24.84375 C 3.84375 -28.476562 4.484375 -31.878906 5.765625 -35.046875 C 7.054688 -38.210938 8.851562 -41 11.15625 -43.40625 C 13.457031 -45.8125 16.144531 -47.691406 19.21875 -49.046875 C 22.289062 -50.410156 25.628906 -51.09375 29.234375 -51.09375 C 33.191406 -51.09375 36.773438 -50.328125 39.984375 -48.796875 C 43.203125 -47.273438 45.941406 -45.191406 48.203125 -42.546875 C 50.460938 -39.898438 52.078125 -36.859375 53.046875 -33.421875 L 44.421875 -33.421875 C 43.128906 -36.628906 41.125 -39.0625 38.40625 -40.71875 C 35.695312 -42.375 32.65625 -43.203125 29.28125 -43.203125 C 27.101562 -43.203125 25 -42.78125 22.96875 -41.9375 C 20.9375 -41.09375 19.109375 -39.875 17.484375 -38.28125 C 15.859375 -36.695312 14.578125 -34.765625 13.640625 -32.484375 C 12.703125 -30.210938 12.234375 -27.664062 12.234375 -24.84375 C 12.234375 -21.988281 12.707031 -19.421875 13.65625 -17.140625 C 14.613281 -14.867188 15.90625 -12.9375 17.53125 -11.34375 C 19.15625 -9.757812 20.984375 -8.546875 23.015625 -7.703125 C 25.046875 -6.859375 27.132812 -6.4375 29.28125 -6.4375 C 32.625 -6.4375 35.660156 -7.285156 38.390625 -8.984375 C 41.117188 -10.691406 43.128906 -13.25 44.421875 -16.65625 L 53 -16.65625 C 52.0625 -13.082031 50.46875 -9.941406 48.21875 -7.234375 C 45.976562 -4.523438 43.234375 -2.40625 39.984375 -0.875 C 36.742188 0.644531 33.160156 1.40625 29.234375 1.40625 Z M 29.234375 1.40625 "/></g></g></g><g fill="#000000" fill-opacity="1"><g transform="translate(718.116477, 305.940771)"><g><path d="M 29.671875 1.40625 C 25.992188 1.40625 22.585938 0.734375 19.453125 -0.609375 C 16.328125 -1.953125 13.59375 -3.828125 11.25 -6.234375 C 8.914062 -8.640625 7.097656 -11.429688 5.796875 -14.609375 C 4.492188 -17.796875 3.84375 -21.207031 3.84375 -24.84375 C 3.84375 -28.476562 4.492188 -31.878906 5.796875 -35.046875 C 7.097656 -38.210938 8.910156 -41 11.234375 -43.40625 C 13.554688 -45.8125 16.28125 -47.691406 19.40625 -49.046875 C 22.539062 -50.410156 25.960938 -51.09375 29.671875 -51.09375 C 33.367188 -51.09375 36.789062 -50.421875 39.9375 -49.078125 C 43.09375 -47.734375 45.835938 -45.859375 48.171875 -43.453125 C 50.515625 -41.046875 52.332031 -38.25 53.625 -35.0625 C 54.925781 -31.882812 55.578125 -28.476562 55.578125 -24.84375 C 55.578125 -21.207031 54.925781 -17.796875 53.625 -14.609375 C 52.332031 -11.429688 50.515625 -8.640625 48.171875 -6.234375 C 45.835938 -3.828125 43.09375 -1.953125 39.9375 -0.609375 C 36.789062 0.734375 33.367188 1.40625 29.671875 1.40625 Z M 29.765625 -6.484375 C 32.234375 -6.484375 34.519531 -6.9375 36.625 -7.84375 C 38.738281 -8.75 40.59375 -10.03125 42.1875 -11.6875 C 43.78125 -13.34375 45.015625 -15.289062 45.890625 -17.53125 C 46.765625 -19.769531 47.203125 -22.207031 47.203125 -24.84375 C 47.203125 -27.476562 46.765625 -29.90625 45.890625 -32.125 C 45.015625 -34.351562 43.78125 -36.296875 42.1875 -37.953125 C 40.59375 -39.609375 38.738281 -40.894531 36.625 -41.8125 C 34.519531 -42.738281 32.234375 -43.203125 29.765625 -43.203125 C 27.296875 -43.203125 25 -42.738281 22.875 -41.8125 C 20.75 -40.894531 18.890625 -39.609375 17.296875 -37.953125 C 15.703125 -36.296875 14.457031 -34.351562 13.5625 -32.125 C 12.675781 -29.90625 12.234375 -27.476562 12.234375 -24.84375 C 12.234375 -22.207031 12.675781 -19.769531 13.5625 -17.53125 C 14.457031 -15.289062 15.703125 -13.34375 17.296875 -11.6875 C 18.890625 -10.03125 20.75 -8.75 22.875 -7.84375 C 25 -6.9375 27.296875 -6.484375 29.765625 -6.484375 Z M 29.765625 -6.484375 "/></g></g></g><g fill="#000000" fill-opacity="1"><g transform="translate(771.764233, 305.940771)"><g><path d="M 16.421875 0 L 8.03125 0 L 8.03125 -49.6875 L 16.078125 -49.6875 L 16.078125 -40.09375 C 17.015625 -42.238281 18.382812 -44.140625 20.1875 -45.796875 C 21.988281 -47.453125 24.109375 -48.75 26.546875 -49.6875 C 28.984375 -50.625 31.597656 -51.09375 34.390625 -51.09375 C 40.984375 -51.09375 45.984375 -49.054688 49.390625 -44.984375 C 52.804688 -40.910156 54.515625 -34.894531 54.515625 -26.9375 L 54.515625 0 L 46.125 0 L 46.125 -26.796875 C 46.125 -32.503906 44.890625 -36.671875 42.421875 -39.296875 C 39.960938 -41.929688 36.570312 -43.25 32.25 -43.25 C 30.164062 -43.25 28.175781 -42.859375 26.28125 -42.078125 C 24.382812 -41.304688 22.695312 -40.171875 21.21875 -38.671875 C 19.738281 -37.179688 18.566406 -35.378906 17.703125 -33.265625 C 16.847656 -31.160156 16.421875 -28.773438 16.421875 -26.109375 Z M 16.421875 0 "/></g></g></g><g fill="#000000" fill-opacity="1"><g transform="translate(827.945263, 305.940771)"><g><path d="M 24.59375 1.40625 C 21.125 1.40625 18.085938 0.941406 15.484375 0.015625 C 12.890625 -0.898438 10.734375 -2.144531 9.015625 -3.71875 C 7.296875 -5.300781 6.003906 -7.085938 5.140625 -9.078125 C 4.273438 -11.078125 3.84375 -13.132812 3.84375 -15.25 L 11.9375 -15.203125 C 11.96875 -13.410156 12.476562 -11.765625 13.46875 -10.265625 C 14.457031 -8.773438 15.894531 -7.59375 17.78125 -6.71875 C 19.664062 -5.84375 21.972656 -5.40625 24.703125 -5.40625 C 28.460938 -5.40625 31.300781 -6.144531 33.21875 -7.625 C 35.132812 -9.101562 36.09375 -11.09375 36.09375 -13.59375 C 36.09375 -15.445312 35.585938 -16.898438 34.578125 -17.953125 C 33.578125 -19.003906 32.140625 -19.8125 30.265625 -20.375 C 28.398438 -20.945312 26.171875 -21.445312 23.578125 -21.875 C 21.273438 -22.226562 19.070312 -22.722656 16.96875 -23.359375 C 14.875 -23.992188 13.015625 -24.863281 11.390625 -25.96875 C 9.773438 -27.070312 8.503906 -28.484375 7.578125 -30.203125 C 6.648438 -31.921875 6.1875 -34.03125 6.1875 -36.53125 C 6.1875 -39.257812 6.84375 -41.71875 8.15625 -43.90625 C 9.46875 -46.101562 11.445312 -47.847656 14.09375 -49.140625 C 16.75 -50.441406 20.039062 -51.09375 23.96875 -51.09375 C 27.800781 -51.09375 31.144531 -50.453125 34 -49.171875 C 36.851562 -47.890625 39.078125 -46.128906 40.671875 -43.890625 C 42.265625 -41.648438 43.0625 -39.082031 43.0625 -36.1875 L 34.828125 -36.1875 C 34.703125 -38.5625 33.6875 -40.46875 31.78125 -41.90625 C 29.882812 -43.351562 27.28125 -44.078125 23.96875 -44.078125 C 21.820312 -44.078125 20.050781 -43.742188 18.65625 -43.078125 C 17.257812 -42.421875 16.210938 -41.53125 15.515625 -40.40625 C 14.816406 -39.289062 14.46875 -38.066406 14.46875 -36.734375 C 14.46875 -35.171875 14.816406 -33.882812 15.515625 -32.875 C 16.210938 -31.875 17.429688 -31.054688 19.171875 -30.421875 C 20.910156 -29.785156 23.320312 -29.207031 26.40625 -28.6875 C 28.675781 -28.332031 30.898438 -27.867188 33.078125 -27.296875 C 35.253906 -26.734375 37.207031 -25.929688 38.9375 -24.890625 C 40.675781 -23.847656 42.054688 -22.453125 43.078125 -20.703125 C 44.109375 -18.953125 44.625 -16.726562 44.625 -14.03125 C 44.625 -10.65625 43.78125 -7.8125 42.09375 -5.5 C 40.40625 -3.195312 38.054688 -1.46875 35.046875 -0.3125 C 32.046875 0.832031 28.5625 1.40625 24.59375 1.40625 Z M 24.59375 1.40625 "/></g></g></g><g fill="#000000" fill-opacity="1"><g transform="translate(870.193289, 305.940771)"><g><path d="M 29.375 1.40625 C 26.0625 1.40625 23.023438 0.9375 20.265625 0 C 17.503906 -0.9375 15.109375 -2.394531 13.078125 -4.375 C 11.046875 -6.363281 9.46875 -8.90625 8.34375 -12 C 7.226562 -15.101562 6.671875 -18.816406 6.671875 -23.140625 L 6.671875 -49.6875 L 15 -49.6875 L 15 -23.375 C 15 -17.789062 16.238281 -13.578125 18.71875 -10.734375 C 21.207031 -7.898438 24.726562 -6.484375 29.28125 -6.484375 C 33.851562 -6.484375 37.375 -7.898438 39.84375 -10.734375 C 42.3125 -13.578125 43.546875 -17.789062 43.546875 -23.375 L 43.546875 -49.6875 L 51.921875 -49.6875 L 51.921875 -23.140625 C 51.921875 -18.816406 51.359375 -15.101562 50.234375 -12 C 49.117188 -8.90625 47.546875 -6.363281 45.515625 -4.375 C 43.492188 -2.394531 41.109375 -0.9375 38.359375 0 C 35.617188 0.9375 32.625 1.40625 29.375 1.40625 Z M 29.375 1.40625 "/></g></g></g><g fill="#000000" fill-opacity="1"><g transform="translate(923.01286, 305.940771)"><g><path d="M 16.421875 0 L 8.03125 0 L 8.03125 -68.6875 L 16.421875 -68.6875 Z M 16.421875 0 "/></g></g></g><g fill="#000000" fill-opacity="1"><g transform="translate(941.681956, 305.940771)"><g><path d="M 36.390625 0 L 27.234375 0 C 25.347656 0 23.476562 -0.242188 21.625 -0.734375 C 19.78125 -1.222656 18.101562 -2.113281 16.59375 -3.40625 C 15.082031 -4.707031 13.867188 -6.566406 12.953125 -8.984375 C 12.046875 -11.398438 11.59375 -14.539062 11.59375 -18.40625 L 11.59375 -42.328125 L 0.53125 -42.328125 L 0.53125 -49.6875 L 11.59375 -49.6875 L 11.59375 -64.453125 L 19.96875 -64.5 L 19.96875 -49.6875 L 36.390625 -49.6875 L 36.390625 -42.328125 L 19.96875 -42.328125 L 19.96875 -18.03125 C 19.96875 -15.71875 20.21875 -13.835938 20.71875 -12.390625 C 21.226562 -10.953125 21.910156 -9.847656 22.765625 -9.078125 C 23.628906 -8.316406 24.585938 -7.796875 25.640625 -7.515625 C 26.703125 -7.242188 27.785156 -7.109375 28.890625 -7.109375 L 36.390625 -7.109375 Z M 36.390625 0 "/></g></g></g><g fill="#000000" fill-opacity="1"><g transform="translate(975.063525, 305.940771)"><g><path d="M 12.171875 -59.375 C 10.453125 -59.375 9.082031 -59.894531 8.0625 -60.9375 C 7.039062 -61.976562 6.53125 -63.242188 6.53125 -64.734375 C 6.53125 -66.203125 7.039062 -67.453125 8.0625 -68.484375 C 9.082031 -69.523438 10.472656 -70.046875 12.234375 -70.046875 C 14.015625 -70.046875 15.414062 -69.523438 16.4375 -68.484375 C 17.457031 -67.453125 17.96875 -66.203125 17.96875 -64.734375 C 17.96875 -63.242188 17.457031 -61.976562 16.4375 -60.9375 C 15.414062 -59.894531 13.992188 -59.375 12.171875 -59.375 Z M 16.421875 0 L 8.03125 0 L 8.03125 -49.6875 L 16.421875 -49.6875 Z M 16.421875 0 "/></g></g></g><g fill="#000000" fill-opacity="1"><g transform="translate(993.732621, 305.940771)"><g><path d="M 16.421875 0 L 8.03125 0 L 8.03125 -49.6875 L 16.078125 -49.6875 L 16.078125 -40.09375 C 17.015625 -42.238281 18.382812 -44.140625 20.1875 -45.796875 C 21.988281 -47.453125 24.109375 -48.75 26.546875 -49.6875 C 28.984375 -50.625 31.597656 -51.09375 34.390625 -51.09375 C 40.984375 -51.09375 45.984375 -49.054688 49.390625 -44.984375 C 52.804688 -40.910156 54.515625 -34.894531 54.515625 -26.9375 L 54.515625 0 L 46.125 0 L 46.125 -26.796875 C 46.125 -32.503906 44.890625 -36.671875 42.421875 -39.296875 C 39.960938 -41.929688 36.570312 -43.25 32.25 -43.25 C 30.164062 -43.25 28.175781 -42.859375 26.28125 -42.078125 C 24.382812 -41.304688 22.695312 -40.171875 21.21875 -38.671875 C 19.738281 -37.179688 18.566406 -35.378906 17.703125 -33.265625 C 16.847656 -31.160156 16.421875 -28.773438 16.421875 -26.109375 Z M 16.421875 0 "/></g></g></g><g fill="#000000" fill-opacity="1"><g transform="translate(1049.913651, 305.940771)"><g><path d="M 29.8125 18.703125 C 25.625 18.703125 22.050781 18.175781 19.09375 17.125 C 16.132812 16.070312 13.707031 14.660156 11.8125 12.890625 C 9.914062 11.117188 8.492188 9.144531 7.546875 6.96875 C 6.609375 4.789062 6.070312 2.566406 5.9375 0.296875 L 13.890625 0.296875 C 14.210938 2.273438 14.929688 4.125 16.046875 5.84375 C 17.171875 7.5625 18.84375 8.941406 21.0625 9.984375 C 23.289062 11.023438 26.207031 11.546875 29.8125 11.546875 C 33.03125 11.546875 35.765625 11.050781 38.015625 10.0625 C 40.273438 9.070312 42.101562 7.722656 43.5 6.015625 C 44.894531 4.304688 45.914062 2.378906 46.5625 0.234375 C 47.21875 -1.898438 47.546875 -4.125 47.546875 -6.4375 L 47.546875 -12.5625 C 46.378906 -10.0625 44.816406 -7.941406 42.859375 -6.203125 C 40.910156 -4.472656 38.691406 -3.160156 36.203125 -2.265625 C 33.722656 -1.367188 31.070312 -0.921875 28.25 -0.921875 C 24.75 -0.921875 21.519531 -1.5625 18.5625 -2.84375 C 15.601562 -4.132812 13.019531 -5.921875 10.8125 -8.203125 C 8.601562 -10.492188 6.890625 -13.140625 5.671875 -16.140625 C 4.453125 -19.148438 3.84375 -22.359375 3.84375 -25.765625 C 3.84375 -29.179688 4.441406 -32.40625 5.640625 -35.4375 C 6.847656 -38.476562 8.546875 -41.164062 10.734375 -43.5 C 12.929688 -45.84375 15.5 -47.6875 18.4375 -49.03125 C 21.375 -50.375 24.566406 -51.046875 28.015625 -51.046875 C 31.191406 -51.046875 34.0625 -50.5 36.625 -49.40625 C 39.195312 -48.320312 41.414062 -46.867188 43.28125 -45.046875 C 45.144531 -43.234375 46.566406 -41.222656 47.546875 -39.015625 L 47.546875 -49.6875 L 55.578125 -49.6875 L 55.578125 -6.671875 C 55.578125 -3.234375 55.050781 0.0195312 54 3.09375 C 52.945312 6.164062 51.351562 8.867188 49.21875 11.203125 C 47.09375 13.546875 44.414062 15.378906 41.1875 16.703125 C 37.957031 18.035156 34.164062 18.703125 29.8125 18.703125 Z M 29.71875 -8.328125 C 32.15625 -8.328125 34.4375 -8.78125 36.5625 -9.6875 C 38.6875 -10.601562 40.546875 -11.863281 42.140625 -13.46875 C 43.734375 -15.070312 44.984375 -16.929688 45.890625 -19.046875 C 46.796875 -21.160156 47.25 -23.398438 47.25 -25.765625 C 47.25 -28.140625 46.800781 -30.375 45.90625 -32.46875 C 45.019531 -34.5625 43.769531 -36.410156 42.15625 -38.015625 C 40.550781 -39.628906 38.691406 -40.894531 36.578125 -41.8125 C 34.472656 -42.738281 32.203125 -43.203125 29.765625 -43.203125 C 27.328125 -43.203125 25.046875 -42.765625 22.921875 -41.890625 C 20.796875 -41.015625 18.925781 -39.789062 17.3125 -38.21875 C 15.707031 -36.644531 14.445312 -34.800781 13.53125 -32.6875 C 12.625 -30.570312 12.171875 -28.265625 12.171875 -25.765625 C 12.171875 -23.296875 12.625 -21.003906 13.53125 -18.890625 C 14.445312 -16.785156 15.703125 -14.9375 17.296875 -13.34375 C 18.890625 -11.75 20.75 -10.515625 22.875 -9.640625 C 25 -8.765625 27.28125 -8.328125 29.71875 -8.328125 Z M 29.71875 -8.328125 "/></g></g></g></g></g></svg>