<svg xmlns="http://www.w3.org/2000/svg" xmlns:xlink="http://www.w3.org/1999/xlink" width="280" zoomAndPan="magnify" viewBox="0 0 210 54" height="72" preserveAspectRatio="xMidYMid meet" version="1.0"><defs><g/><clipPath id="9e36c9f784"><path d="M 1.910156 0 L 208.089844 0 L 208.089844 53.019531 L 1.910156 53.019531 Z M 1.910156 0 " clip-rule="nonzero"/></clipPath><clipPath id="df0b55780f"><path d="M 0.226562 0.566406 L 179.800781 0.566406 L 179.800781 34.59375 L 0.226562 34.59375 Z M 0.226562 0.566406 " clip-rule="nonzero"/></clipPath><clipPath id="a015e010b3"><rect x="0" width="180" y="0" height="35"/></clipPath></defs><g clip-path="url(#9e36c9f784)"><path fill="#ffffff" d="M 1.910156 0 L 208.089844 0 L 208.089844 53.019531 L 1.910156 53.019531 Z M 1.910156 0 " fill-opacity="1" fill-rule="nonzero"/><path fill="#ffffff" d="M 1.910156 0 L 208.089844 0 L 208.089844 53.019531 L 1.910156 53.019531 Z M 1.910156 0 " fill-opacity="1" fill-rule="nonzero"/></g><g transform="matrix(1, 0, 0, 1, 15, 9)"><g clip-path="url(#a015e010b3)"><g clip-path="url(#df0b55780f)"><path fill="#000000" d="M 169.984375 0.578125 L 9.996094 0.578125 L 0.222656 17.503906 L 9.996094 34.429688 L 169.984375 34.429688 L 179.757812 17.503906 Z M 169.984375 0.578125 " fill-opacity="1" fill-rule="nonzero"/></g><path fill="#007a3f" d="M 10.742188 33.136719 L 1.71875 17.503906 L 10.742188 1.871094 L 169.238281 1.871094 L 178.265625 17.503906 L 169.238281 33.136719 Z M 10.742188 33.136719 " fill-opacity="1" fill-rule="nonzero"/><path fill="#000000" d="M 168.566406 31.972656 L 11.414062 31.972656 L 3.0625 17.503906 L 3.101562 17.4375 L 11.414062 3.035156 L 168.566406 3.035156 L 168.605469 3.101562 L 176.921875 17.503906 Z M 11.566406 31.714844 L 168.417969 31.714844 L 176.621094 17.503906 L 168.417969 3.296875 L 11.566406 3.296875 L 3.359375 17.503906 Z M 11.566406 31.714844 " fill-opacity="1" fill-rule="nonzero"/><path fill="#000000" d="M 13.433594 17.503906 L 12.144531 17.8125 C 11.40625 17.988281 10.828125 18.566406 10.652344 19.308594 L 10.34375 20.597656 L 10.035156 19.308594 C 9.859375 18.566406 9.28125 17.988281 8.539062 17.8125 L 7.25 17.503906 L 8.539062 17.195312 C 9.28125 17.019531 9.855469 16.441406 10.035156 15.703125 L 10.34375 14.414062 L 10.652344 15.703125 C 10.828125 16.441406 11.40625 17.019531 12.144531 17.195312 Z M 13.433594 17.503906 " fill-opacity="1" fill-rule="nonzero"/><path fill="#000000" d="M 172.730469 17.503906 L 171.441406 17.8125 C 170.703125 17.988281 170.125 18.566406 169.945312 19.308594 L 169.636719 20.597656 L 169.328125 19.308594 C 169.152344 18.566406 168.574219 17.988281 167.835938 17.8125 L 166.546875 17.503906 L 167.835938 17.195312 C 168.574219 17.019531 169.152344 16.441406 169.328125 15.703125 L 169.636719 14.414062 L 169.945312 15.703125 C 170.125 16.441406 170.699219 17.019531 171.441406 17.195312 Z M 172.730469 17.503906 " fill-opacity="1" fill-rule="nonzero"/><g fill="#ffffff" fill-opacity="1"><g transform="translate(21.858131, 20.00095)"><g><path d="M 0.734375 -10.046875 L 3.84375 -10.046875 C 4.789062 -10.046875 5.546875 -9.84375 6.109375 -9.4375 C 6.671875 -9.039062 6.953125 -8.394531 6.953125 -7.5 C 6.953125 -6.488281 6.53125 -5.769531 5.6875 -5.34375 C 7.125 -5.082031 7.84375 -4.234375 7.84375 -2.796875 C 7.84375 -1.953125 7.546875 -1.273438 6.953125 -0.765625 C 6.367188 -0.253906 5.566406 0 4.546875 0 L 0.734375 0 Z M 3.015625 -6.125 L 3.203125 -6.125 C 3.710938 -6.125 4.09375 -6.210938 4.34375 -6.390625 C 4.601562 -6.566406 4.734375 -6.859375 4.734375 -7.265625 C 4.734375 -7.941406 4.222656 -8.28125 3.203125 -8.28125 L 3.015625 -8.28125 Z M 3.015625 -1.765625 L 3.734375 -1.765625 C 4.859375 -1.765625 5.421875 -2.140625 5.421875 -2.890625 C 5.421875 -3.335938 5.28125 -3.65625 5 -3.84375 C 4.71875 -4.039062 4.296875 -4.140625 3.734375 -4.140625 L 3.015625 -4.140625 Z M 3.015625 -1.765625 "/></g></g></g><g fill="#ffffff" fill-opacity="1"><g transform="translate(29.973112, 20.00095)"><g><path d="M 0.734375 0 L 0.734375 -6.25 L 2.890625 -6.25 L 2.890625 -5.34375 L 2.90625 -5.34375 C 2.925781 -5.382812 2.953125 -5.425781 2.984375 -5.46875 C 3.023438 -5.519531 3.101562 -5.601562 3.21875 -5.71875 C 3.34375 -5.84375 3.472656 -5.953125 3.609375 -6.046875 C 3.753906 -6.148438 3.9375 -6.238281 4.15625 -6.3125 C 4.375 -6.394531 4.597656 -6.4375 4.828125 -6.4375 C 5.054688 -6.4375 5.285156 -6.398438 5.515625 -6.328125 C 5.742188 -6.265625 5.910156 -6.203125 6.015625 -6.140625 L 6.1875 -6.046875 L 5.296875 -4.21875 C 5.023438 -4.445312 4.648438 -4.5625 4.171875 -4.5625 C 3.910156 -4.5625 3.6875 -4.503906 3.5 -4.390625 C 3.3125 -4.273438 3.175781 -4.132812 3.09375 -3.96875 C 3.019531 -3.8125 2.96875 -3.675781 2.9375 -3.5625 C 2.90625 -3.445312 2.890625 -3.359375 2.890625 -3.296875 L 2.890625 0 Z M 0.734375 0 "/></g></g></g><g fill="#ffffff" fill-opacity="1"><g transform="translate(36.041077, 20.00095)"><g><path d="M 0.9375 -9.734375 C 1.1875 -9.984375 1.484375 -10.109375 1.828125 -10.109375 C 2.179688 -10.109375 2.484375 -9.984375 2.734375 -9.734375 C 2.992188 -9.484375 3.125 -9.179688 3.125 -8.828125 C 3.125 -8.484375 2.992188 -8.1875 2.734375 -7.9375 C 2.484375 -7.6875 2.179688 -7.5625 1.828125 -7.5625 C 1.484375 -7.5625 1.1875 -7.6875 0.9375 -7.9375 C 0.6875 -8.1875 0.5625 -8.484375 0.5625 -8.828125 C 0.5625 -9.179688 0.6875 -9.484375 0.9375 -9.734375 Z M 0.734375 -6.25 L 0.734375 0 L 2.890625 0 L 2.890625 -6.25 Z M 0.734375 -6.25 "/></g></g></g><g fill="#ffffff" fill-opacity="1"><g transform="translate(39.720849, 20.00095)"><g><path d="M 0.734375 0 L 0.734375 -6.25 L 2.890625 -6.25 L 2.890625 -5.59375 L 2.90625 -5.59375 C 3.46875 -6.15625 4.066406 -6.4375 4.703125 -6.4375 C 5.015625 -6.4375 5.320312 -6.394531 5.625 -6.3125 C 5.925781 -6.226562 6.21875 -6.097656 6.5 -5.921875 C 6.78125 -5.753906 7.007812 -5.515625 7.1875 -5.203125 C 7.363281 -4.890625 7.453125 -4.53125 7.453125 -4.125 L 7.453125 0 L 5.296875 0 L 5.296875 -3.53125 C 5.296875 -3.851562 5.191406 -4.132812 4.984375 -4.375 C 4.773438 -4.625 4.503906 -4.75 4.171875 -4.75 C 3.847656 -4.75 3.550781 -4.625 3.28125 -4.375 C 3.019531 -4.125 2.890625 -3.84375 2.890625 -3.53125 L 2.890625 0 Z M 0.734375 0 "/></g></g></g><g fill="#ffffff" fill-opacity="1"><g transform="translate(47.774913, 20.00095)"><g><path d="M 0.453125 1.53125 L 2.21875 0.671875 C 2.539062 1.203125 3.101562 1.46875 3.90625 1.46875 C 4.28125 1.46875 4.628906 1.347656 4.953125 1.109375 C 5.273438 0.867188 5.4375 0.503906 5.4375 0.015625 L 5.4375 -0.453125 C 5.050781 -0.0234375 4.367188 0.1875 3.390625 0.1875 C 2.484375 0.1875 1.738281 -0.128906 1.15625 -0.765625 C 0.570312 -1.410156 0.28125 -2.195312 0.28125 -3.125 C 0.28125 -4.050781 0.570312 -4.832031 1.15625 -5.46875 C 1.738281 -6.113281 2.484375 -6.4375 3.390625 -6.4375 C 4.191406 -6.4375 4.863281 -6.1875 5.40625 -5.6875 L 5.4375 -5.6875 L 5.4375 -6.25 L 7.59375 -6.25 L 7.59375 0.171875 C 7.59375 1.179688 7.253906 1.960938 6.578125 2.515625 C 5.898438 3.066406 5.007812 3.34375 3.90625 3.34375 C 2.125 3.34375 0.972656 2.738281 0.453125 1.53125 Z M 2.984375 -4.171875 C 2.710938 -3.898438 2.578125 -3.546875 2.578125 -3.109375 C 2.578125 -2.679688 2.707031 -2.332031 2.96875 -2.0625 C 3.238281 -1.789062 3.59375 -1.65625 4.03125 -1.65625 C 4.457031 -1.65625 4.804688 -1.789062 5.078125 -2.0625 C 5.347656 -2.34375 5.484375 -2.695312 5.484375 -3.125 C 5.484375 -3.550781 5.34375 -3.898438 5.0625 -4.171875 C 4.78125 -4.453125 4.4375 -4.59375 4.03125 -4.59375 C 3.613281 -4.59375 3.265625 -4.453125 2.984375 -4.171875 Z M 2.984375 -4.171875 "/></g></g></g><g fill="#ffffff" fill-opacity="1"><g transform="translate(59.35032, 20.00095)"><g><path d="M 5.46875 -6.25 L 7.953125 -6.25 L 3.046875 3.171875 L 0.5625 3.171875 L 2.71875 -0.96875 L -0.25 -6.25 L 2.25 -6.25 L 3.984375 -3.046875 Z M 5.46875 -6.25 "/></g></g></g><g fill="#ffffff" fill-opacity="1"><g transform="translate(67.026647, 20.00095)"><g><path d="M 1.3125 -0.734375 C 0.625 -1.359375 0.28125 -2.148438 0.28125 -3.109375 C 0.28125 -4.078125 0.640625 -4.875 1.359375 -5.5 C 2.085938 -6.125 2.984375 -6.4375 4.046875 -6.4375 C 5.097656 -6.4375 5.984375 -6.125 6.703125 -5.5 C 7.421875 -4.875 7.78125 -4.082031 7.78125 -3.125 C 7.78125 -2.164062 7.425781 -1.375 6.71875 -0.75 C 6.019531 -0.125 5.128906 0.1875 4.046875 0.1875 C 2.921875 0.1875 2.007812 -0.117188 1.3125 -0.734375 Z M 2.984375 -4.171875 C 2.710938 -3.898438 2.578125 -3.546875 2.578125 -3.109375 C 2.578125 -2.679688 2.707031 -2.332031 2.96875 -2.0625 C 3.238281 -1.789062 3.59375 -1.65625 4.03125 -1.65625 C 4.457031 -1.65625 4.804688 -1.789062 5.078125 -2.0625 C 5.347656 -2.34375 5.484375 -2.695312 5.484375 -3.125 C 5.484375 -3.550781 5.34375 -3.898438 5.0625 -4.171875 C 4.78125 -4.453125 4.4375 -4.59375 4.03125 -4.59375 C 3.613281 -4.59375 3.265625 -4.453125 2.984375 -4.171875 Z M 2.984375 -4.171875 "/></g></g></g><g fill="#ffffff" fill-opacity="1"><g transform="translate(75.080712, 20.00095)"><g><path d="M 2.765625 -6.25 L 2.765625 -3.28125 C 2.765625 -2.664062 2.859375 -2.226562 3.046875 -1.96875 C 3.234375 -1.707031 3.550781 -1.578125 4 -1.578125 C 4.445312 -1.578125 4.765625 -1.707031 4.953125 -1.96875 C 5.140625 -2.226562 5.234375 -2.664062 5.234375 -3.28125 L 5.234375 -6.25 L 7.390625 -6.25 L 7.390625 -2.75 C 7.390625 -1.707031 7.117188 -0.957031 6.578125 -0.5 C 6.035156 -0.0390625 5.175781 0.1875 4 0.1875 C 2.820312 0.1875 1.960938 -0.0390625 1.421875 -0.5 C 0.878906 -0.957031 0.609375 -1.707031 0.609375 -2.75 L 0.609375 -6.25 Z M 2.765625 -6.25 "/></g></g></g><g fill="#ffffff" fill-opacity="1"><g transform="translate(83.073848, 20.00095)"><g><path d="M 0.734375 0 L 0.734375 -6.25 L 2.890625 -6.25 L 2.890625 -5.34375 L 2.90625 -5.34375 C 2.925781 -5.382812 2.953125 -5.425781 2.984375 -5.46875 C 3.023438 -5.519531 3.101562 -5.601562 3.21875 -5.71875 C 3.34375 -5.84375 3.472656 -5.953125 3.609375 -6.046875 C 3.753906 -6.148438 3.9375 -6.238281 4.15625 -6.3125 C 4.375 -6.394531 4.597656 -6.4375 4.828125 -6.4375 C 5.054688 -6.4375 5.285156 -6.398438 5.515625 -6.328125 C 5.742188 -6.265625 5.910156 -6.203125 6.015625 -6.140625 L 6.1875 -6.046875 L 5.296875 -4.21875 C 5.023438 -4.445312 4.648438 -4.5625 4.171875 -4.5625 C 3.910156 -4.5625 3.6875 -4.503906 3.5 -4.390625 C 3.3125 -4.273438 3.175781 -4.132812 3.09375 -3.96875 C 3.019531 -3.8125 2.96875 -3.675781 2.9375 -3.5625 C 2.90625 -3.445312 2.890625 -3.359375 2.890625 -3.296875 L 2.890625 0 Z M 0.734375 0 "/></g></g></g><g fill="#ffffff" fill-opacity="1"><g transform="translate(92.468229, 20.00095)"><g><path d="M 1.3125 -0.734375 C 0.625 -1.359375 0.28125 -2.148438 0.28125 -3.109375 C 0.28125 -4.078125 0.640625 -4.875 1.359375 -5.5 C 2.085938 -6.125 2.984375 -6.4375 4.046875 -6.4375 C 5.097656 -6.4375 5.984375 -6.125 6.703125 -5.5 C 7.421875 -4.875 7.78125 -4.082031 7.78125 -3.125 C 7.78125 -2.164062 7.425781 -1.375 6.71875 -0.75 C 6.019531 -0.125 5.128906 0.1875 4.046875 0.1875 C 2.921875 0.1875 2.007812 -0.117188 1.3125 -0.734375 Z M 2.984375 -4.171875 C 2.710938 -3.898438 2.578125 -3.546875 2.578125 -3.109375 C 2.578125 -2.679688 2.707031 -2.332031 2.96875 -2.0625 C 3.238281 -1.789062 3.59375 -1.65625 4.03125 -1.65625 C 4.457031 -1.65625 4.804688 -1.789062 5.078125 -2.0625 C 5.347656 -2.34375 5.484375 -2.695312 5.484375 -3.125 C 5.484375 -3.550781 5.34375 -3.898438 5.0625 -4.171875 C 4.78125 -4.453125 4.4375 -4.59375 4.03125 -4.59375 C 3.613281 -4.59375 3.265625 -4.453125 2.984375 -4.171875 Z M 2.984375 -4.171875 "/></g></g></g><g fill="#ffffff" fill-opacity="1"><g transform="translate(100.461352, 20.00095)"><g><path d="M 4.5625 0 L 3.109375 0 L -0.25 -6.25 L 2.25 -6.25 L 3.765625 -2.875 L 5.265625 -6.25 L 6.75 -6.25 L 8.25 -2.875 L 9.78125 -6.25 L 12.265625 -6.25 L 8.90625 0 L 7.453125 0 L 6.015625 -3.234375 Z M 4.5625 0 "/></g></g></g><g fill="#ffffff" fill-opacity="1"><g transform="translate(112.475425, 20.00095)"><g><path d="M 0.734375 0 L 0.734375 -6.25 L 2.890625 -6.25 L 2.890625 -5.59375 L 2.90625 -5.59375 C 3.46875 -6.15625 4.066406 -6.4375 4.703125 -6.4375 C 5.015625 -6.4375 5.320312 -6.394531 5.625 -6.3125 C 5.925781 -6.226562 6.21875 -6.097656 6.5 -5.921875 C 6.78125 -5.753906 7.007812 -5.515625 7.1875 -5.203125 C 7.363281 -4.890625 7.453125 -4.53125 7.453125 -4.125 L 7.453125 0 L 5.296875 0 L 5.296875 -3.53125 C 5.296875 -3.851562 5.191406 -4.132812 4.984375 -4.375 C 4.773438 -4.625 4.503906 -4.75 4.171875 -4.75 C 3.847656 -4.75 3.550781 -4.625 3.28125 -4.375 C 3.019531 -4.125 2.890625 -3.84375 2.890625 -3.53125 L 2.890625 0 Z M 0.734375 0 "/></g></g></g><g fill="#ffffff" fill-opacity="1"><g transform="translate(123.612153, 20.00095)"><g><path d="M 4.4375 -10.234375 C 4.976562 -10.234375 5.507812 -10.15625 6.03125 -10 C 6.550781 -9.84375 6.9375 -9.6875 7.1875 -9.53125 L 7.5625 -9.28125 L 6.625 -7.453125 C 6.550781 -7.503906 6.445312 -7.566406 6.3125 -7.640625 C 6.1875 -7.722656 5.945312 -7.828125 5.59375 -7.953125 C 5.238281 -8.085938 4.90625 -8.15625 4.59375 -8.15625 C 4.207031 -8.15625 3.910156 -8.070312 3.703125 -7.90625 C 3.503906 -7.75 3.40625 -7.53125 3.40625 -7.25 C 3.40625 -7.113281 3.453125 -6.984375 3.546875 -6.859375 C 3.640625 -6.742188 3.804688 -6.617188 4.046875 -6.484375 C 4.285156 -6.347656 4.492188 -6.238281 4.671875 -6.15625 C 4.847656 -6.082031 5.125 -5.960938 5.5 -5.796875 C 6.144531 -5.523438 6.695312 -5.148438 7.15625 -4.671875 C 7.613281 -4.191406 7.84375 -3.65625 7.84375 -3.0625 C 7.84375 -2.476562 7.738281 -1.972656 7.53125 -1.546875 C 7.332031 -1.117188 7.050781 -0.78125 6.6875 -0.53125 C 6.320312 -0.289062 5.921875 -0.113281 5.484375 0 C 5.046875 0.125 4.570312 0.1875 4.0625 0.1875 C 3.625 0.1875 3.191406 0.140625 2.765625 0.046875 C 2.335938 -0.0351562 1.984375 -0.144531 1.703125 -0.28125 C 1.421875 -0.414062 1.164062 -0.546875 0.9375 -0.671875 C 0.707031 -0.804688 0.539062 -0.921875 0.4375 -1.015625 L 0.28125 -1.140625 L 1.421875 -3.078125 C 1.523438 -2.992188 1.660156 -2.890625 1.828125 -2.765625 C 1.992188 -2.640625 2.296875 -2.46875 2.734375 -2.25 C 3.171875 -2.039062 3.554688 -1.9375 3.890625 -1.9375 C 4.859375 -1.9375 5.34375 -2.265625 5.34375 -2.921875 C 5.34375 -3.054688 5.304688 -3.179688 5.234375 -3.296875 C 5.160156 -3.421875 5.035156 -3.539062 4.859375 -3.65625 C 4.691406 -3.78125 4.539062 -3.875 4.40625 -3.9375 C 4.269531 -4.007812 4.050781 -4.113281 3.75 -4.25 C 3.445312 -4.394531 3.222656 -4.503906 3.078125 -4.578125 C 2.460938 -4.878906 1.988281 -5.253906 1.65625 -5.703125 C 1.320312 -6.160156 1.15625 -6.648438 1.15625 -7.171875 C 1.15625 -8.066406 1.488281 -8.800781 2.15625 -9.375 C 2.820312 -9.945312 3.582031 -10.234375 4.4375 -10.234375 Z M 4.4375 -10.234375 "/></g></g></g><g fill="#ffffff" fill-opacity="1"><g transform="translate(131.800253, 20.00095)"><g><path d="M 9.046875 0 L 8.5625 -5.953125 L 8.5 -5.953125 L 6.453125 -0.0625 L 5.078125 -0.0625 L 3.015625 -5.953125 L 2.96875 -5.953125 L 2.484375 0 L 0.1875 0 L 1.09375 -10.046875 L 3.53125 -10.046875 L 5.765625 -4.25 L 8 -10.046875 L 10.4375 -10.046875 L 11.328125 0 Z M 9.046875 0 "/></g></g></g><g fill="#ffffff" fill-opacity="1"><g transform="translate(142.741941, 20.00095)"><g><path d="M 0.09375 -8.046875 L 0.09375 -10.046875 L 7.171875 -10.046875 L 7.171875 -8.046875 L 4.78125 -8.046875 L 4.78125 0 L 2.484375 0 L 2.484375 -8.046875 Z M 0.09375 -8.046875 "/></g></g></g><g fill="#ffffff" fill-opacity="1"><g transform="translate(150.003996, 20.00095)"><g><path d="M 0.734375 -10.046875 L 4.40625 -10.046875 C 5.425781 -10.046875 6.253906 -9.78125 6.890625 -9.25 C 7.523438 -8.726562 7.84375 -7.960938 7.84375 -6.953125 C 7.84375 -5.953125 7.519531 -5.164062 6.875 -4.59375 C 6.226562 -4.019531 5.40625 -3.734375 4.40625 -3.734375 L 3.015625 -3.734375 L 3.015625 0 L 0.734375 0 Z M 3.015625 -5.5625 L 3.671875 -5.5625 C 4.179688 -5.5625 4.597656 -5.660156 4.921875 -5.859375 C 5.253906 -6.066406 5.421875 -6.410156 5.421875 -6.890625 C 5.421875 -7.367188 5.253906 -7.707031 4.921875 -7.90625 C 4.597656 -8.113281 4.179688 -8.21875 3.671875 -8.21875 L 3.015625 -8.21875 Z M 3.015625 -5.5625 "/></g></g></g></g></g></svg>