<svg xmlns="http://www.w3.org/2000/svg" xmlns:xlink="http://www.w3.org/1999/xlink" width="280" zoomAndPan="magnify" viewBox="0 0 210 54" height="72" preserveAspectRatio="xMidYMid meet" version="1.0"><defs><g/><clipPath id="f6da2e9a52"><path d="M 1.910156 0 L 208.089844 0 L 208.089844 53.019531 L 1.910156 53.019531 Z M 1.910156 0 " clip-rule="nonzero"/></clipPath><clipPath id="cbe8bb47f6"><path d="M 3.636719 7.375 L 206.136719 7.375 L 206.136719 45.667969 L 3.636719 45.667969 Z M 3.636719 7.375 " clip-rule="nonzero"/></clipPath></defs><g clip-path="url(#f6da2e9a52)"><path fill="#ffffff" d="M 1.910156 0 L 208.089844 0 L 208.089844 53.019531 L 1.910156 53.019531 Z M 1.910156 0 " fill-opacity="1" fill-rule="nonzero"/><path fill="#ffffff" d="M 1.910156 0 L 208.089844 0 L 208.089844 53.019531 L 1.910156 53.019531 Z M 1.910156 0 " fill-opacity="1" fill-rule="nonzero"/></g><g clip-path="url(#cbe8bb47f6)"><path fill="#000000" d="M 195.316406 7.394531 L 14.667969 7.394531 L 3.632812 26.507812 L 14.667969 45.617188 L 195.316406 45.617188 L 206.351562 26.507812 Z M 195.316406 7.394531 " fill-opacity="1" fill-rule="nonzero"/></g><path fill="#007a3f" d="M 15.511719 44.15625 L 5.320312 26.507812 L 15.511719 8.855469 L 194.472656 8.855469 L 204.664062 26.507812 L 194.472656 44.15625 Z M 15.511719 44.15625 " fill-opacity="1" fill-rule="nonzero"/><path fill="#000000" d="M 193.714844 42.84375 L 16.269531 42.84375 L 6.835938 26.503906 L 6.878906 26.429688 L 16.269531 10.167969 L 193.714844 10.167969 L 193.757812 10.242188 L 203.144531 26.503906 Z M 16.4375 42.550781 L 193.546875 42.550781 L 202.808594 26.507812 L 193.546875 10.460938 L 16.4375 10.460938 L 7.175781 26.507812 Z M 16.4375 42.550781 " fill-opacity="1" fill-rule="nonzero"/><path fill="#000000" d="M 18.550781 26.507812 L 17.09375 26.855469 C 16.257812 27.054688 15.605469 27.707031 15.40625 28.542969 L 15.058594 29.996094 L 14.710938 28.542969 C 14.511719 27.707031 13.859375 27.054688 13.023438 26.855469 L 11.566406 26.507812 L 13.023438 26.15625 C 13.855469 25.957031 14.507812 25.304688 14.710938 24.472656 L 15.058594 23.015625 L 15.40625 24.472656 C 15.605469 25.304688 16.257812 25.957031 17.09375 26.15625 Z M 18.550781 26.507812 " fill-opacity="1" fill-rule="nonzero"/><path fill="#000000" d="M 198.414062 26.507812 L 196.960938 26.855469 C 196.125 27.054688 195.472656 27.707031 195.273438 28.542969 L 194.925781 29.996094 L 194.574219 28.542969 C 194.375 27.707031 193.722656 27.054688 192.890625 26.855469 L 191.433594 26.507812 L 192.890625 26.15625 C 193.722656 25.957031 194.375 25.304688 194.574219 24.472656 L 194.925781 23.015625 L 195.273438 24.472656 C 195.472656 25.304688 196.125 25.957031 196.960938 26.15625 Z M 198.414062 26.507812 " fill-opacity="1" fill-rule="nonzero"/><g fill="#ffffff" fill-opacity="1"><g transform="translate(41.341092, 30.332018)"><g><path d="M 8.828125 -9.0625 C 8.753906 -9.050781 8.632812 -9.019531 8.46875 -8.96875 C 8.300781 -8.914062 8.179688 -8.863281 8.109375 -8.8125 C 7.929688 -8.695312 7.8125 -8.609375 7.75 -8.546875 C 7.6875 -8.492188 7.566406 -8.34375 7.390625 -8.09375 C 7.046875 -7.601562 6.722656 -7.101562 6.421875 -6.59375 C 6.128906 -6.09375 5.757812 -5.453125 5.3125 -4.671875 C 5.144531 -4.378906 5.035156 -4.144531 4.984375 -3.96875 C 4.929688 -3.800781 4.90625 -3.550781 4.90625 -3.21875 L 4.90625 -1.390625 C 4.90625 -1.234375 4.9375 -1.09375 5 -0.96875 C 5.070312 -0.851562 5.1875 -0.757812 5.34375 -0.6875 C 5.4375 -0.65625 5.601562 -0.613281 5.84375 -0.5625 C 6.082031 -0.507812 6.273438 -0.484375 6.421875 -0.484375 L 6.421875 0 L 1.96875 0 L 1.96875 -0.484375 C 2.09375 -0.484375 2.28125 -0.492188 2.53125 -0.515625 C 2.78125 -0.546875 2.953125 -0.582031 3.046875 -0.625 C 3.210938 -0.6875 3.320312 -0.773438 3.375 -0.890625 C 3.4375 -1.015625 3.46875 -1.160156 3.46875 -1.328125 L 3.46875 -3.65625 C 3.46875 -3.71875 3.425781 -3.84375 3.34375 -4.03125 C 3.257812 -4.226562 3.15625 -4.441406 3.03125 -4.671875 C 2.757812 -5.191406 2.457031 -5.753906 2.125 -6.359375 C 1.800781 -6.960938 1.519531 -7.484375 1.28125 -7.921875 C 1.132812 -8.171875 1.003906 -8.359375 0.890625 -8.484375 C 0.773438 -8.617188 0.644531 -8.738281 0.5 -8.84375 C 0.394531 -8.90625 0.265625 -8.953125 0.109375 -8.984375 C -0.0351562 -9.023438 -0.171875 -9.050781 -0.296875 -9.0625 L -0.296875 -9.53125 L 3.765625 -9.53125 L 3.765625 -9.0625 C 3.304688 -9.050781 2.984375 -9.019531 2.796875 -8.96875 C 2.609375 -8.914062 2.515625 -8.835938 2.515625 -8.734375 C 2.515625 -8.710938 2.523438 -8.664062 2.546875 -8.59375 C 2.578125 -8.53125 2.617188 -8.445312 2.671875 -8.34375 C 2.734375 -8.226562 2.800781 -8.09375 2.875 -7.9375 C 2.957031 -7.789062 3.035156 -7.648438 3.109375 -7.515625 C 3.316406 -7.109375 3.53125 -6.707031 3.75 -6.3125 C 3.976562 -5.914062 4.269531 -5.398438 4.625 -4.765625 C 5.320312 -5.898438 5.851562 -6.785156 6.21875 -7.421875 C 6.59375 -8.054688 6.78125 -8.4375 6.78125 -8.5625 C 6.78125 -8.664062 6.738281 -8.75 6.65625 -8.8125 C 6.582031 -8.875 6.484375 -8.921875 6.359375 -8.953125 C 6.234375 -8.984375 6.09375 -9.003906 5.9375 -9.015625 C 5.789062 -9.035156 5.648438 -9.050781 5.515625 -9.0625 L 5.515625 -9.53125 L 8.828125 -9.53125 Z M 8.828125 -9.0625 "/></g></g></g><g fill="#ffffff" fill-opacity="1"><g transform="translate(49.807206, 30.332018)"><g><path d="M 6.9375 -3.375 C 6.9375 -2.914062 6.863281 -2.457031 6.71875 -2 C 6.570312 -1.550781 6.363281 -1.171875 6.09375 -0.859375 C 5.78125 -0.503906 5.421875 -0.238281 5.015625 -0.0625 C 4.609375 0.113281 4.148438 0.203125 3.640625 0.203125 C 3.222656 0.203125 2.820312 0.125 2.4375 -0.03125 C 2.0625 -0.195312 1.722656 -0.429688 1.421875 -0.734375 C 1.128906 -1.035156 0.894531 -1.398438 0.71875 -1.828125 C 0.550781 -2.265625 0.46875 -2.75 0.46875 -3.28125 C 0.46875 -4.320312 0.769531 -5.171875 1.375 -5.828125 C 1.976562 -6.484375 2.769531 -6.8125 3.75 -6.8125 C 4.675781 -6.8125 5.4375 -6.5 6.03125 -5.875 C 6.632812 -5.25 6.9375 -4.414062 6.9375 -3.375 Z M 5.546875 -3.375 C 5.546875 -3.707031 5.507812 -4.0625 5.4375 -4.4375 C 5.375 -4.8125 5.28125 -5.128906 5.15625 -5.390625 C 5.007812 -5.660156 4.816406 -5.878906 4.578125 -6.046875 C 4.347656 -6.222656 4.066406 -6.3125 3.734375 -6.3125 C 3.390625 -6.3125 3.09375 -6.222656 2.84375 -6.046875 C 2.601562 -5.878906 2.40625 -5.644531 2.25 -5.34375 C 2.101562 -5.070312 2 -4.757812 1.9375 -4.40625 C 1.882812 -4.0625 1.859375 -3.726562 1.859375 -3.40625 C 1.859375 -2.96875 1.890625 -2.566406 1.953125 -2.203125 C 2.023438 -1.835938 2.140625 -1.515625 2.296875 -1.234375 C 2.453125 -0.941406 2.644531 -0.710938 2.875 -0.546875 C 3.101562 -0.390625 3.390625 -0.3125 3.734375 -0.3125 C 4.296875 -0.3125 4.738281 -0.582031 5.0625 -1.125 C 5.382812 -1.664062 5.546875 -2.414062 5.546875 -3.375 Z M 5.546875 -3.375 "/></g></g></g><g fill="#ffffff" fill-opacity="1"><g transform="translate(57.225135, 30.332018)"><g><path d="M 7.59375 -0.125 L 5.4375 0.03125 L 5.328125 -0.0625 L 5.328125 -0.90625 L 5.296875 -0.90625 C 5.179688 -0.789062 5.054688 -0.671875 4.921875 -0.546875 C 4.785156 -0.421875 4.632812 -0.304688 4.46875 -0.203125 C 4.257812 -0.078125 4.0625 0.015625 3.875 0.078125 C 3.6875 0.140625 3.421875 0.171875 3.078125 0.171875 C 2.492188 0.171875 2.046875 -0.0195312 1.734375 -0.40625 C 1.429688 -0.789062 1.28125 -1.347656 1.28125 -2.078125 L 1.28125 -5.25 C 1.28125 -5.40625 1.25 -5.539062 1.1875 -5.65625 C 1.125 -5.769531 1.035156 -5.863281 0.921875 -5.9375 C 0.835938 -5.988281 0.734375 -6.023438 0.609375 -6.046875 C 0.492188 -6.078125 0.367188 -6.097656 0.234375 -6.109375 L 0.234375 -6.546875 L 2.453125 -6.703125 L 2.546875 -6.609375 L 2.546875 -2.015625 C 2.546875 -1.535156 2.648438 -1.171875 2.859375 -0.921875 C 3.078125 -0.679688 3.335938 -0.5625 3.640625 -0.5625 C 3.890625 -0.5625 4.109375 -0.597656 4.296875 -0.671875 C 4.492188 -0.753906 4.65625 -0.847656 4.78125 -0.953125 C 4.90625 -1.046875 5.015625 -1.144531 5.109375 -1.25 C 5.203125 -1.351562 5.269531 -1.453125 5.3125 -1.546875 L 5.3125 -5.296875 C 5.3125 -5.441406 5.28125 -5.570312 5.21875 -5.6875 C 5.15625 -5.800781 5.066406 -5.898438 4.953125 -5.984375 C 4.878906 -6.035156 4.757812 -6.066406 4.59375 -6.078125 C 4.4375 -6.085938 4.257812 -6.097656 4.0625 -6.109375 L 4.0625 -6.546875 L 6.46875 -6.703125 L 6.578125 -6.609375 L 6.578125 -1.34375 C 6.578125 -1.195312 6.609375 -1.066406 6.671875 -0.953125 C 6.734375 -0.847656 6.820312 -0.757812 6.9375 -0.6875 C 7.007812 -0.632812 7.101562 -0.597656 7.21875 -0.578125 C 7.332031 -0.566406 7.457031 -0.5625 7.59375 -0.5625 Z M 7.59375 -0.125 "/></g></g></g><g fill="#ffffff" fill-opacity="1"><g transform="translate(65.140279, 30.332018)"><g><path d="M 5.5625 -5.78125 C 5.5625 -5.550781 5.503906 -5.347656 5.390625 -5.171875 C 5.273438 -4.992188 5.101562 -4.90625 4.875 -4.90625 C 4.625 -4.90625 4.429688 -4.96875 4.296875 -5.09375 C 4.160156 -5.226562 4.09375 -5.375 4.09375 -5.53125 C 4.09375 -5.625 4.097656 -5.710938 4.109375 -5.796875 C 4.128906 -5.878906 4.148438 -5.957031 4.171875 -6.03125 C 3.953125 -6.03125 3.703125 -5.945312 3.421875 -5.78125 C 3.140625 -5.613281 2.898438 -5.367188 2.703125 -5.046875 L 2.703125 -1.203125 C 2.703125 -1.046875 2.734375 -0.914062 2.796875 -0.8125 C 2.859375 -0.71875 2.953125 -0.644531 3.078125 -0.59375 C 3.191406 -0.550781 3.335938 -0.515625 3.515625 -0.484375 C 3.691406 -0.460938 3.847656 -0.445312 3.984375 -0.4375 L 3.984375 0 L 0.484375 0 L 0.484375 -0.4375 C 0.585938 -0.445312 0.691406 -0.457031 0.796875 -0.46875 C 0.910156 -0.476562 1.007812 -0.5 1.09375 -0.53125 C 1.21875 -0.5625 1.304688 -0.628906 1.359375 -0.734375 C 1.421875 -0.835938 1.453125 -0.96875 1.453125 -1.125 L 1.453125 -5.21875 C 1.453125 -5.363281 1.421875 -5.5 1.359375 -5.625 C 1.296875 -5.757812 1.207031 -5.867188 1.09375 -5.953125 C 1.007812 -6.003906 0.90625 -6.039062 0.78125 -6.0625 C 0.664062 -6.09375 0.539062 -6.113281 0.40625 -6.125 L 0.40625 -6.5625 L 2.609375 -6.703125 L 2.703125 -6.609375 L 2.703125 -5.671875 L 2.75 -5.671875 C 3.019531 -6.035156 3.328125 -6.3125 3.671875 -6.5 C 4.015625 -6.6875 4.328125 -6.78125 4.609375 -6.78125 C 4.890625 -6.78125 5.117188 -6.6875 5.296875 -6.5 C 5.472656 -6.320312 5.5625 -6.082031 5.5625 -5.78125 Z M 5.5625 -5.78125 "/></g></g></g><g fill="#ffffff" fill-opacity="1"><g transform="translate(70.777636, 30.332018)"><g/></g></g><g fill="#ffffff" fill-opacity="1"><g transform="translate(74.096891, 30.332018)"><g><path d="M 6.59375 -4.375 C 6.789062 -4.15625 6.9375 -3.910156 7.03125 -3.640625 C 7.132812 -3.367188 7.1875 -3.054688 7.1875 -2.703125 C 7.1875 -1.859375 6.875 -1.164062 6.25 -0.625 C 5.625 -0.0820312 4.851562 0.1875 3.9375 0.1875 C 3.507812 0.1875 3.082031 0.125 2.65625 0 C 2.226562 -0.132812 1.859375 -0.296875 1.546875 -0.484375 L 1.265625 0 L 0.71875 0 L 0.625 -3.265625 L 1.171875 -3.265625 C 1.285156 -2.859375 1.414062 -2.492188 1.5625 -2.171875 C 1.71875 -1.847656 1.921875 -1.539062 2.171875 -1.25 C 2.398438 -0.988281 2.671875 -0.78125 2.984375 -0.625 C 3.296875 -0.46875 3.65625 -0.390625 4.0625 -0.390625 C 4.375 -0.390625 4.644531 -0.425781 4.875 -0.5 C 5.101562 -0.582031 5.289062 -0.703125 5.4375 -0.859375 C 5.582031 -1.003906 5.6875 -1.175781 5.75 -1.375 C 5.820312 -1.570312 5.859375 -1.800781 5.859375 -2.0625 C 5.859375 -2.445312 5.75 -2.800781 5.53125 -3.125 C 5.320312 -3.457031 5.003906 -3.707031 4.578125 -3.875 C 4.285156 -3.988281 3.953125 -4.113281 3.578125 -4.25 C 3.203125 -4.394531 2.875 -4.535156 2.59375 -4.671875 C 2.0625 -4.910156 1.644531 -5.222656 1.34375 -5.609375 C 1.050781 -6.003906 0.90625 -6.519531 0.90625 -7.15625 C 0.90625 -7.519531 0.976562 -7.859375 1.125 -8.171875 C 1.269531 -8.484375 1.476562 -8.757812 1.75 -9 C 2.007812 -9.238281 2.316406 -9.421875 2.671875 -9.546875 C 3.023438 -9.679688 3.394531 -9.75 3.78125 -9.75 C 4.21875 -9.75 4.609375 -9.679688 4.953125 -9.546875 C 5.304688 -9.410156 5.628906 -9.253906 5.921875 -9.078125 L 6.1875 -9.53125 L 6.734375 -9.53125 L 6.78125 -6.375 L 6.234375 -6.375 C 6.140625 -6.738281 6.03125 -7.082031 5.90625 -7.40625 C 5.78125 -7.738281 5.617188 -8.039062 5.421875 -8.3125 C 5.234375 -8.570312 5 -8.78125 4.71875 -8.9375 C 4.4375 -9.09375 4.097656 -9.171875 3.703125 -9.171875 C 3.273438 -9.171875 2.910156 -9.03125 2.609375 -8.75 C 2.304688 -8.476562 2.15625 -8.144531 2.15625 -7.75 C 2.15625 -7.34375 2.25 -7.003906 2.4375 -6.734375 C 2.632812 -6.460938 2.914062 -6.238281 3.28125 -6.0625 C 3.613281 -5.90625 3.9375 -5.769531 4.25 -5.65625 C 4.5625 -5.539062 4.867188 -5.421875 5.171875 -5.296875 C 5.441406 -5.171875 5.695312 -5.035156 5.9375 -4.890625 C 6.1875 -4.742188 6.40625 -4.570312 6.59375 -4.375 Z M 6.59375 -4.375 "/></g></g></g><g fill="#ffffff" fill-opacity="1"><g transform="translate(81.81718, 30.332018)"><g><path d="M 12.140625 0 L 7.921875 0 L 7.921875 -0.484375 C 8.078125 -0.484375 8.273438 -0.492188 8.515625 -0.515625 C 8.753906 -0.546875 8.914062 -0.585938 9 -0.640625 C 9.144531 -0.722656 9.25 -0.816406 9.3125 -0.921875 C 9.375 -1.035156 9.40625 -1.175781 9.40625 -1.34375 L 9.40625 -8.28125 L 9.3125 -8.28125 L 6.0625 -0.15625 L 5.71875 -0.15625 L 2.625 -8.453125 L 2.53125 -8.453125 L 2.53125 -2.75 C 2.53125 -2.195312 2.566406 -1.773438 2.640625 -1.484375 C 2.710938 -1.203125 2.816406 -1 2.953125 -0.875 C 3.054688 -0.78125 3.257812 -0.691406 3.5625 -0.609375 C 3.875 -0.523438 4.078125 -0.484375 4.171875 -0.484375 L 4.171875 0 L 0.328125 0 L 0.328125 -0.484375 C 0.523438 -0.492188 0.734375 -0.523438 0.953125 -0.578125 C 1.179688 -0.628906 1.351562 -0.703125 1.46875 -0.796875 C 1.625 -0.921875 1.726562 -1.113281 1.78125 -1.375 C 1.84375 -1.632812 1.875 -2.070312 1.875 -2.6875 L 1.875 -7.5625 C 1.875 -7.84375 1.84375 -8.070312 1.78125 -8.25 C 1.71875 -8.425781 1.617188 -8.570312 1.484375 -8.6875 C 1.347656 -8.8125 1.175781 -8.898438 0.96875 -8.953125 C 0.769531 -9.015625 0.578125 -9.050781 0.390625 -9.0625 L 0.390625 -9.53125 L 3.640625 -9.53125 L 6.359375 -2.390625 L 8.703125 -8.375 C 8.785156 -8.59375 8.851562 -8.820312 8.90625 -9.0625 C 8.96875 -9.300781 9.003906 -9.457031 9.015625 -9.53125 L 12.125 -9.53125 L 12.125 -9.0625 C 12 -9.050781 11.835938 -9.03125 11.640625 -9 C 11.453125 -8.96875 11.3125 -8.9375 11.21875 -8.90625 C 11.0625 -8.84375 10.957031 -8.75 10.90625 -8.625 C 10.851562 -8.5 10.828125 -8.363281 10.828125 -8.21875 L 10.828125 -1.34375 C 10.828125 -1.1875 10.851562 -1.050781 10.90625 -0.9375 C 10.957031 -0.832031 11.0625 -0.742188 11.21875 -0.671875 C 11.300781 -0.617188 11.441406 -0.570312 11.640625 -0.53125 C 11.847656 -0.5 12.015625 -0.484375 12.140625 -0.484375 Z M 12.140625 0 "/></g></g></g><g fill="#ffffff" fill-opacity="1"><g transform="translate(94.576824, 30.332018)"><g><path d="M 8.40625 -6.953125 L 7.9375 -6.953125 C 7.90625 -7.109375 7.832031 -7.296875 7.71875 -7.515625 C 7.613281 -7.742188 7.5 -7.957031 7.375 -8.15625 C 7.238281 -8.363281 7.085938 -8.539062 6.921875 -8.6875 C 6.765625 -8.84375 6.613281 -8.929688 6.46875 -8.953125 C 6.332031 -8.972656 6.15625 -8.988281 5.9375 -9 C 5.726562 -9.007812 5.535156 -9.015625 5.359375 -9.015625 L 4.96875 -9.015625 L 4.96875 -1.390625 C 4.96875 -1.234375 5 -1.09375 5.0625 -0.96875 C 5.125 -0.851562 5.234375 -0.757812 5.390625 -0.6875 C 5.472656 -0.65625 5.644531 -0.613281 5.90625 -0.5625 C 6.164062 -0.507812 6.363281 -0.484375 6.5 -0.484375 L 6.5 0 L 2 0 L 2 -0.484375 C 2.125 -0.484375 2.316406 -0.5 2.578125 -0.53125 C 2.835938 -0.5625 3.015625 -0.59375 3.109375 -0.625 C 3.253906 -0.6875 3.363281 -0.769531 3.4375 -0.875 C 3.507812 -0.988281 3.546875 -1.140625 3.546875 -1.328125 L 3.546875 -9.015625 L 3.15625 -9.015625 C 3.007812 -9.015625 2.832031 -9.007812 2.625 -9 C 2.425781 -9 2.234375 -8.984375 2.046875 -8.953125 C 1.898438 -8.941406 1.742188 -8.851562 1.578125 -8.6875 C 1.421875 -8.53125 1.273438 -8.351562 1.140625 -8.15625 C 1.003906 -7.945312 0.882812 -7.726562 0.78125 -7.5 C 0.675781 -7.28125 0.609375 -7.097656 0.578125 -6.953125 L 0.09375 -6.953125 L 0.09375 -9.53125 L 8.40625 -9.53125 Z M 8.40625 -6.953125 "/></g></g></g><g fill="#ffffff" fill-opacity="1"><g transform="translate(103.089972, 30.332018)"><g><path d="M 7.953125 -7.1875 C 7.953125 -6.6875 7.851562 -6.242188 7.65625 -5.859375 C 7.46875 -5.484375 7.203125 -5.164062 6.859375 -4.90625 C 6.515625 -4.65625 6.140625 -4.472656 5.734375 -4.359375 C 5.328125 -4.242188 4.894531 -4.1875 4.4375 -4.1875 L 3.375 -4.1875 L 3.375 -1.296875 C 3.375 -1.140625 3.394531 -1 3.4375 -0.875 C 3.488281 -0.757812 3.597656 -0.671875 3.765625 -0.609375 C 3.847656 -0.578125 3.988281 -0.546875 4.1875 -0.515625 C 4.394531 -0.492188 4.582031 -0.484375 4.75 -0.484375 L 4.75 0 L 0.65625 0 L 0.65625 -0.484375 C 0.757812 -0.484375 0.914062 -0.492188 1.125 -0.515625 C 1.332031 -0.546875 1.472656 -0.578125 1.546875 -0.609375 C 1.679688 -0.671875 1.78125 -0.753906 1.84375 -0.859375 C 1.90625 -0.972656 1.9375 -1.117188 1.9375 -1.296875 L 1.9375 -8.1875 C 1.9375 -8.34375 1.910156 -8.484375 1.859375 -8.609375 C 1.816406 -8.734375 1.710938 -8.828125 1.546875 -8.890625 C 1.378906 -8.941406 1.210938 -8.976562 1.046875 -9 C 0.878906 -9.03125 0.734375 -9.050781 0.609375 -9.0625 L 0.609375 -9.53125 L 4.96875 -9.53125 C 5.851562 -9.53125 6.570312 -9.316406 7.125 -8.890625 C 7.675781 -8.460938 7.953125 -7.894531 7.953125 -7.1875 Z M 5.921875 -5.5625 C 6.066406 -5.769531 6.164062 -5.988281 6.21875 -6.21875 C 6.269531 -6.457031 6.296875 -6.664062 6.296875 -6.84375 C 6.296875 -7.101562 6.265625 -7.363281 6.203125 -7.625 C 6.140625 -7.894531 6.035156 -8.128906 5.890625 -8.328125 C 5.734375 -8.535156 5.523438 -8.695312 5.265625 -8.8125 C 5.015625 -8.925781 4.695312 -8.984375 4.3125 -8.984375 L 3.375 -8.984375 L 3.375 -4.765625 L 4.046875 -4.765625 C 4.535156 -4.765625 4.929688 -4.835938 5.234375 -4.984375 C 5.535156 -5.140625 5.765625 -5.332031 5.921875 -5.5625 Z M 5.921875 -5.5625 "/></g></g></g><g fill="#ffffff" fill-opacity="1"><g transform="translate(111.482175, 30.332018)"><g/></g></g><g fill="#ffffff" fill-opacity="1"><g transform="translate(114.801429, 30.332018)"><g><path d="M 6.15625 -0.6875 C 6.34375 -0.519531 6.484375 -0.328125 6.578125 -0.109375 C 6.679688 0.109375 6.734375 0.375 6.734375 0.6875 C 6.734375 1.007812 6.664062 1.3125 6.53125 1.59375 C 6.394531 1.875 6.1875 2.113281 5.90625 2.3125 C 5.601562 2.53125 5.242188 2.695312 4.828125 2.8125 C 4.410156 2.925781 3.894531 2.984375 3.28125 2.984375 C 2.28125 2.984375 1.53125 2.835938 1.03125 2.546875 C 0.53125 2.253906 0.28125 1.820312 0.28125 1.25 C 0.28125 0.800781 0.457031 0.441406 0.8125 0.171875 C 1.175781 -0.0859375 1.632812 -0.226562 2.1875 -0.25 L 2.1875 -0.34375 C 2.050781 -0.382812 1.910156 -0.4375 1.765625 -0.5 C 1.628906 -0.5625 1.507812 -0.632812 1.40625 -0.71875 C 1.289062 -0.8125 1.195312 -0.921875 1.125 -1.046875 C 1.050781 -1.171875 1.015625 -1.328125 1.015625 -1.515625 C 1.015625 -1.753906 1.097656 -1.972656 1.265625 -2.171875 C 1.429688 -2.367188 1.6875 -2.539062 2.03125 -2.6875 L 2.03125 -2.796875 C 1.601562 -2.992188 1.269531 -3.25 1.03125 -3.5625 C 0.789062 -3.882812 0.671875 -4.253906 0.671875 -4.671875 C 0.671875 -5.296875 0.90625 -5.804688 1.375 -6.203125 C 1.84375 -6.609375 2.441406 -6.8125 3.171875 -6.8125 C 3.367188 -6.8125 3.566406 -6.789062 3.765625 -6.75 C 3.972656 -6.707031 4.175781 -6.65625 4.375 -6.59375 L 6.6875 -6.59375 L 6.6875 -5.953125 L 5.140625 -5.953125 L 5.140625 -5.921875 C 5.304688 -5.722656 5.425781 -5.503906 5.5 -5.265625 C 5.582031 -5.035156 5.625 -4.8125 5.625 -4.59375 C 5.625 -4.007812 5.382812 -3.515625 4.90625 -3.109375 C 4.4375 -2.703125 3.890625 -2.5 3.265625 -2.5 L 2.453125 -2.5 C 2.347656 -2.46875 2.238281 -2.40625 2.125 -2.3125 C 2.019531 -2.21875 1.96875 -2.085938 1.96875 -1.921875 C 1.96875 -1.765625 2.015625 -1.640625 2.109375 -1.546875 C 2.203125 -1.460938 2.316406 -1.40625 2.453125 -1.375 C 2.578125 -1.332031 2.722656 -1.304688 2.890625 -1.296875 C 3.066406 -1.296875 3.25 -1.289062 3.4375 -1.28125 C 3.632812 -1.28125 3.90625 -1.265625 4.25 -1.234375 C 4.59375 -1.210938 4.832031 -1.203125 4.96875 -1.203125 C 5.175781 -1.191406 5.382812 -1.140625 5.59375 -1.046875 C 5.800781 -0.960938 5.988281 -0.84375 6.15625 -0.6875 Z M 4.34375 -4.625 C 4.34375 -5.144531 4.234375 -5.5625 4.015625 -5.875 C 3.804688 -6.1875 3.507812 -6.34375 3.125 -6.34375 C 2.914062 -6.34375 2.734375 -6.296875 2.578125 -6.203125 C 2.429688 -6.117188 2.3125 -5.992188 2.21875 -5.828125 C 2.132812 -5.679688 2.070312 -5.503906 2.03125 -5.296875 C 1.988281 -5.085938 1.96875 -4.875 1.96875 -4.65625 C 1.96875 -4.15625 2.078125 -3.75 2.296875 -3.4375 C 2.515625 -3.125 2.796875 -2.96875 3.140625 -2.96875 C 3.523438 -2.96875 3.820312 -3.125 4.03125 -3.4375 C 4.238281 -3.75 4.34375 -4.144531 4.34375 -4.625 Z M 5.640625 0.9375 C 5.640625 0.6875 5.582031 0.476562 5.46875 0.3125 C 5.351562 0.15625 5.175781 0.0507812 4.9375 0 C 4.8125 -0.0195312 4.550781 -0.0390625 4.15625 -0.0625 C 3.769531 -0.0820312 3.316406 -0.09375 2.796875 -0.09375 C 2.316406 0 1.972656 0.15625 1.765625 0.375 C 1.566406 0.59375 1.46875 0.878906 1.46875 1.234375 C 1.46875 1.390625 1.5 1.535156 1.5625 1.671875 C 1.632812 1.816406 1.753906 1.953125 1.921875 2.078125 C 2.078125 2.191406 2.285156 2.285156 2.546875 2.359375 C 2.804688 2.429688 3.128906 2.46875 3.515625 2.46875 C 4.171875 2.46875 4.6875 2.34375 5.0625 2.09375 C 5.445312 1.84375 5.640625 1.457031 5.640625 0.9375 Z M 5.640625 0.9375 "/></g></g></g><g fill="#ffffff" fill-opacity="1"><g transform="translate(121.809491, 30.332018)"><g><path d="M 6.9375 -3.375 C 6.9375 -2.914062 6.863281 -2.457031 6.71875 -2 C 6.570312 -1.550781 6.363281 -1.171875 6.09375 -0.859375 C 5.78125 -0.503906 5.421875 -0.238281 5.015625 -0.0625 C 4.609375 0.113281 4.148438 0.203125 3.640625 0.203125 C 3.222656 0.203125 2.820312 0.125 2.4375 -0.03125 C 2.0625 -0.195312 1.722656 -0.429688 1.421875 -0.734375 C 1.128906 -1.035156 0.894531 -1.398438 0.71875 -1.828125 C 0.550781 -2.265625 0.46875 -2.75 0.46875 -3.28125 C 0.46875 -4.320312 0.769531 -5.171875 1.375 -5.828125 C 1.976562 -6.484375 2.769531 -6.8125 3.75 -6.8125 C 4.675781 -6.8125 5.4375 -6.5 6.03125 -5.875 C 6.632812 -5.25 6.9375 -4.414062 6.9375 -3.375 Z M 5.546875 -3.375 C 5.546875 -3.707031 5.507812 -4.0625 5.4375 -4.4375 C 5.375 -4.8125 5.28125 -5.128906 5.15625 -5.390625 C 5.007812 -5.660156 4.816406 -5.878906 4.578125 -6.046875 C 4.347656 -6.222656 4.066406 -6.3125 3.734375 -6.3125 C 3.390625 -6.3125 3.09375 -6.222656 2.84375 -6.046875 C 2.601562 -5.878906 2.40625 -5.644531 2.25 -5.34375 C 2.101562 -5.070312 2 -4.757812 1.9375 -4.40625 C 1.882812 -4.0625 1.859375 -3.726562 1.859375 -3.40625 C 1.859375 -2.96875 1.890625 -2.566406 1.953125 -2.203125 C 2.023438 -1.835938 2.140625 -1.515625 2.296875 -1.234375 C 2.453125 -0.941406 2.644531 -0.710938 2.875 -0.546875 C 3.101562 -0.390625 3.390625 -0.3125 3.734375 -0.3125 C 4.296875 -0.3125 4.738281 -0.582031 5.0625 -1.125 C 5.382812 -1.664062 5.546875 -2.414062 5.546875 -3.375 Z M 5.546875 -3.375 "/></g></g></g><g fill="#ffffff" fill-opacity="1"><g transform="translate(129.227419, 30.332018)"><g><path d="M 6.375 -1.5625 C 6.09375 -1.03125 5.71875 -0.609375 5.25 -0.296875 C 4.789062 0.015625 4.257812 0.171875 3.65625 0.171875 C 3.113281 0.171875 2.640625 0.078125 2.234375 -0.109375 C 1.835938 -0.296875 1.507812 -0.550781 1.25 -0.875 C 0.988281 -1.195312 0.796875 -1.570312 0.671875 -2 C 0.546875 -2.425781 0.484375 -2.882812 0.484375 -3.375 C 0.484375 -3.800781 0.550781 -4.21875 0.6875 -4.625 C 0.820312 -5.039062 1.023438 -5.414062 1.296875 -5.75 C 1.546875 -6.070312 1.859375 -6.328125 2.234375 -6.515625 C 2.617188 -6.710938 3.046875 -6.8125 3.515625 -6.8125 C 3.992188 -6.8125 4.40625 -6.734375 4.75 -6.578125 C 5.101562 -6.429688 5.382812 -6.226562 5.59375 -5.96875 C 5.800781 -5.707031 5.953125 -5.40625 6.046875 -5.0625 C 6.148438 -4.726562 6.203125 -4.363281 6.203125 -3.96875 L 6.203125 -3.515625 L 1.828125 -3.515625 C 1.828125 -3.085938 1.863281 -2.695312 1.9375 -2.34375 C 2.019531 -1.988281 2.15625 -1.675781 2.34375 -1.40625 C 2.507812 -1.144531 2.734375 -0.9375 3.015625 -0.78125 C 3.304688 -0.632812 3.644531 -0.5625 4.03125 -0.5625 C 4.425781 -0.5625 4.769531 -0.65625 5.0625 -0.84375 C 5.351562 -1.03125 5.632812 -1.363281 5.90625 -1.84375 Z M 4.890625 -4.09375 C 4.890625 -4.34375 4.867188 -4.609375 4.828125 -4.890625 C 4.785156 -5.179688 4.71875 -5.421875 4.625 -5.609375 C 4.519531 -5.816406 4.375 -5.984375 4.1875 -6.109375 C 4.007812 -6.242188 3.78125 -6.3125 3.5 -6.3125 C 3.03125 -6.3125 2.640625 -6.113281 2.328125 -5.71875 C 2.015625 -5.332031 1.847656 -4.789062 1.828125 -4.09375 Z M 4.890625 -4.09375 "/></g></g></g><g fill="#ffffff" fill-opacity="1"><g transform="translate(135.879366, 30.332018)"><g><path d="M 4.859375 -3.25 C 5.046875 -3.082031 5.1875 -2.894531 5.28125 -2.6875 C 5.382812 -2.476562 5.4375 -2.222656 5.4375 -1.921875 C 5.4375 -1.304688 5.203125 -0.800781 4.734375 -0.40625 C 4.273438 -0.0195312 3.679688 0.171875 2.953125 0.171875 C 2.566406 0.171875 2.210938 0.101562 1.890625 -0.03125 C 1.566406 -0.164062 1.335938 -0.296875 1.203125 -0.421875 L 1.0625 0.015625 L 0.5625 0.015625 L 0.484375 -2.28125 L 0.953125 -2.28125 C 0.992188 -2.101562 1.070312 -1.898438 1.1875 -1.671875 C 1.300781 -1.441406 1.441406 -1.234375 1.609375 -1.046875 C 1.785156 -0.847656 1.992188 -0.679688 2.234375 -0.546875 C 2.472656 -0.410156 2.75 -0.34375 3.0625 -0.34375 C 3.488281 -0.34375 3.816406 -0.4375 4.046875 -0.625 C 4.285156 -0.820312 4.40625 -1.101562 4.40625 -1.46875 C 4.40625 -1.65625 4.367188 -1.816406 4.296875 -1.953125 C 4.222656 -2.097656 4.113281 -2.21875 3.96875 -2.3125 C 3.820312 -2.414062 3.640625 -2.507812 3.421875 -2.59375 C 3.203125 -2.675781 2.960938 -2.757812 2.703125 -2.84375 C 2.492188 -2.90625 2.257812 -2.988281 2 -3.09375 C 1.738281 -3.207031 1.519531 -3.335938 1.34375 -3.484375 C 1.144531 -3.640625 0.984375 -3.832031 0.859375 -4.0625 C 0.734375 -4.289062 0.671875 -4.5625 0.671875 -4.875 C 0.671875 -5.414062 0.867188 -5.875 1.265625 -6.25 C 1.671875 -6.625 2.210938 -6.8125 2.890625 -6.8125 C 3.148438 -6.8125 3.414062 -6.773438 3.6875 -6.703125 C 3.957031 -6.640625 4.175781 -6.5625 4.34375 -6.46875 L 4.5 -6.828125 L 4.984375 -6.828125 L 5.09375 -4.6875 L 4.625 -4.6875 C 4.53125 -5.164062 4.328125 -5.550781 4.015625 -5.84375 C 3.703125 -6.144531 3.320312 -6.296875 2.875 -6.296875 C 2.507812 -6.296875 2.21875 -6.203125 2 -6.015625 C 1.789062 -5.835938 1.6875 -5.617188 1.6875 -5.359375 C 1.6875 -5.148438 1.722656 -4.976562 1.796875 -4.84375 C 1.867188 -4.71875 1.972656 -4.609375 2.109375 -4.515625 C 2.242188 -4.421875 2.410156 -4.332031 2.609375 -4.25 C 2.816406 -4.175781 3.070312 -4.09375 3.375 -4 C 3.664062 -3.894531 3.941406 -3.78125 4.203125 -3.65625 C 4.472656 -3.53125 4.691406 -3.394531 4.859375 -3.25 Z M 4.859375 -3.25 "/></g></g></g><g fill="#ffffff" fill-opacity="1"><g transform="translate(141.825803, 30.332018)"><g/></g></g><g fill="#ffffff" fill-opacity="1"><g transform="translate(145.145057, 30.332018)"><g><path d="M 7.6875 0 L 4.421875 0 L 4.421875 -0.4375 C 4.523438 -0.445312 4.640625 -0.457031 4.765625 -0.46875 C 4.890625 -0.476562 4.992188 -0.5 5.078125 -0.53125 C 5.203125 -0.5625 5.296875 -0.628906 5.359375 -0.734375 C 5.421875 -0.835938 5.453125 -0.96875 5.453125 -1.125 L 5.453125 -4.53125 C 5.453125 -5.007812 5.335938 -5.375 5.109375 -5.625 C 4.890625 -5.882812 4.625 -6.015625 4.3125 -6.015625 C 4.070312 -6.015625 3.851562 -5.972656 3.65625 -5.890625 C 3.457031 -5.816406 3.28125 -5.726562 3.125 -5.625 C 2.96875 -5.507812 2.847656 -5.394531 2.765625 -5.28125 C 2.691406 -5.175781 2.632812 -5.082031 2.59375 -5 L 2.59375 -1.203125 C 2.59375 -1.046875 2.617188 -0.914062 2.671875 -0.8125 C 2.734375 -0.71875 2.828125 -0.644531 2.953125 -0.59375 C 3.054688 -0.550781 3.160156 -0.515625 3.265625 -0.484375 C 3.367188 -0.460938 3.484375 -0.445312 3.609375 -0.4375 L 3.609375 0 L 0.359375 0 L 0.359375 -0.4375 C 0.460938 -0.445312 0.566406 -0.457031 0.671875 -0.46875 C 0.785156 -0.476562 0.882812 -0.5 0.96875 -0.53125 C 1.09375 -0.5625 1.1875 -0.628906 1.25 -0.734375 C 1.3125 -0.835938 1.34375 -0.96875 1.34375 -1.125 L 1.34375 -8.84375 C 1.34375 -9 1.304688 -9.148438 1.234375 -9.296875 C 1.160156 -9.453125 1.070312 -9.566406 0.96875 -9.640625 C 0.882812 -9.703125 0.738281 -9.742188 0.53125 -9.765625 C 0.332031 -9.796875 0.171875 -9.8125 0.046875 -9.8125 L 0.046875 -10.25 L 2.5 -10.40625 L 2.59375 -10.296875 L 2.59375 -5.671875 L 2.609375 -5.671875 C 2.765625 -5.828125 2.898438 -5.960938 3.015625 -6.078125 C 3.140625 -6.191406 3.300781 -6.3125 3.5 -6.4375 C 3.664062 -6.539062 3.863281 -6.628906 4.09375 -6.703125 C 4.320312 -6.773438 4.582031 -6.8125 4.875 -6.8125 C 5.46875 -6.8125 5.921875 -6.625 6.234375 -6.25 C 6.554688 -5.875 6.71875 -5.332031 6.71875 -4.625 L 6.71875 -1.1875 C 6.71875 -1.03125 6.742188 -0.898438 6.796875 -0.796875 C 6.859375 -0.703125 6.953125 -0.628906 7.078125 -0.578125 C 7.179688 -0.535156 7.273438 -0.503906 7.359375 -0.484375 C 7.441406 -0.460938 7.550781 -0.445312 7.6875 -0.4375 Z M 7.6875 0 "/></g></g></g><g fill="#ffffff" fill-opacity="1"><g transform="translate(153.15427, 30.332018)"><g><path d="M 6.375 -1.5625 C 6.09375 -1.03125 5.71875 -0.609375 5.25 -0.296875 C 4.789062 0.015625 4.257812 0.171875 3.65625 0.171875 C 3.113281 0.171875 2.640625 0.078125 2.234375 -0.109375 C 1.835938 -0.296875 1.507812 -0.550781 1.25 -0.875 C 0.988281 -1.195312 0.796875 -1.570312 0.671875 -2 C 0.546875 -2.425781 0.484375 -2.882812 0.484375 -3.375 C 0.484375 -3.800781 0.550781 -4.21875 0.6875 -4.625 C 0.820312 -5.039062 1.023438 -5.414062 1.296875 -5.75 C 1.546875 -6.070312 1.859375 -6.328125 2.234375 -6.515625 C 2.617188 -6.710938 3.046875 -6.8125 3.515625 -6.8125 C 3.992188 -6.8125 4.40625 -6.734375 4.75 -6.578125 C 5.101562 -6.429688 5.382812 -6.226562 5.59375 -5.96875 C 5.800781 -5.707031 5.953125 -5.40625 6.046875 -5.0625 C 6.148438 -4.726562 6.203125 -4.363281 6.203125 -3.96875 L 6.203125 -3.515625 L 1.828125 -3.515625 C 1.828125 -3.085938 1.863281 -2.695312 1.9375 -2.34375 C 2.019531 -1.988281 2.15625 -1.675781 2.34375 -1.40625 C 2.507812 -1.144531 2.734375 -0.9375 3.015625 -0.78125 C 3.304688 -0.632812 3.644531 -0.5625 4.03125 -0.5625 C 4.425781 -0.5625 4.769531 -0.65625 5.0625 -0.84375 C 5.351562 -1.03125 5.632812 -1.363281 5.90625 -1.84375 Z M 4.890625 -4.09375 C 4.890625 -4.34375 4.867188 -4.609375 4.828125 -4.890625 C 4.785156 -5.179688 4.71875 -5.421875 4.625 -5.609375 C 4.519531 -5.816406 4.375 -5.984375 4.1875 -6.109375 C 4.007812 -6.242188 3.78125 -6.3125 3.5 -6.3125 C 3.03125 -6.3125 2.640625 -6.113281 2.328125 -5.71875 C 2.015625 -5.332031 1.847656 -4.789062 1.828125 -4.09375 Z M 4.890625 -4.09375 "/></g></g></g><g fill="#ffffff" fill-opacity="1"><g transform="translate(159.806217, 30.332018)"><g><path d="M 5.5625 -5.78125 C 5.5625 -5.550781 5.503906 -5.347656 5.390625 -5.171875 C 5.273438 -4.992188 5.101562 -4.90625 4.875 -4.90625 C 4.625 -4.90625 4.429688 -4.96875 4.296875 -5.09375 C 4.160156 -5.226562 4.09375 -5.375 4.09375 -5.53125 C 4.09375 -5.625 4.097656 -5.710938 4.109375 -5.796875 C 4.128906 -5.878906 4.148438 -5.957031 4.171875 -6.03125 C 3.953125 -6.03125 3.703125 -5.945312 3.421875 -5.78125 C 3.140625 -5.613281 2.898438 -5.367188 2.703125 -5.046875 L 2.703125 -1.203125 C 2.703125 -1.046875 2.734375 -0.914062 2.796875 -0.8125 C 2.859375 -0.71875 2.953125 -0.644531 3.078125 -0.59375 C 3.191406 -0.550781 3.335938 -0.515625 3.515625 -0.484375 C 3.691406 -0.460938 3.847656 -0.445312 3.984375 -0.4375 L 3.984375 0 L 0.484375 0 L 0.484375 -0.4375 C 0.585938 -0.445312 0.691406 -0.457031 0.796875 -0.46875 C 0.910156 -0.476562 1.007812 -0.5 1.09375 -0.53125 C 1.21875 -0.5625 1.304688 -0.628906 1.359375 -0.734375 C 1.421875 -0.835938 1.453125 -0.96875 1.453125 -1.125 L 1.453125 -5.21875 C 1.453125 -5.363281 1.421875 -5.5 1.359375 -5.625 C 1.296875 -5.757812 1.207031 -5.867188 1.09375 -5.953125 C 1.007812 -6.003906 0.90625 -6.039062 0.78125 -6.0625 C 0.664062 -6.09375 0.539062 -6.113281 0.40625 -6.125 L 0.40625 -6.5625 L 2.609375 -6.703125 L 2.703125 -6.609375 L 2.703125 -5.671875 L 2.75 -5.671875 C 3.019531 -6.035156 3.328125 -6.3125 3.671875 -6.5 C 4.015625 -6.6875 4.328125 -6.78125 4.609375 -6.78125 C 4.890625 -6.78125 5.117188 -6.6875 5.296875 -6.5 C 5.472656 -6.320312 5.5625 -6.082031 5.5625 -5.78125 Z M 5.5625 -5.78125 "/></g></g></g><g fill="#ffffff" fill-opacity="1"><g transform="translate(165.443574, 30.332018)"><g><path d="M 6.375 -1.5625 C 6.09375 -1.03125 5.71875 -0.609375 5.25 -0.296875 C 4.789062 0.015625 4.257812 0.171875 3.65625 0.171875 C 3.113281 0.171875 2.640625 0.078125 2.234375 -0.109375 C 1.835938 -0.296875 1.507812 -0.550781 1.25 -0.875 C 0.988281 -1.195312 0.796875 -1.570312 0.671875 -2 C 0.546875 -2.425781 0.484375 -2.882812 0.484375 -3.375 C 0.484375 -3.800781 0.550781 -4.21875 0.6875 -4.625 C 0.820312 -5.039062 1.023438 -5.414062 1.296875 -5.75 C 1.546875 -6.070312 1.859375 -6.328125 2.234375 -6.515625 C 2.617188 -6.710938 3.046875 -6.8125 3.515625 -6.8125 C 3.992188 -6.8125 4.40625 -6.734375 4.75 -6.578125 C 5.101562 -6.429688 5.382812 -6.226562 5.59375 -5.96875 C 5.800781 -5.707031 5.953125 -5.40625 6.046875 -5.0625 C 6.148438 -4.726562 6.203125 -4.363281 6.203125 -3.96875 L 6.203125 -3.515625 L 1.828125 -3.515625 C 1.828125 -3.085938 1.863281 -2.695312 1.9375 -2.34375 C 2.019531 -1.988281 2.15625 -1.675781 2.34375 -1.40625 C 2.507812 -1.144531 2.734375 -0.9375 3.015625 -0.78125 C 3.304688 -0.632812 3.644531 -0.5625 4.03125 -0.5625 C 4.425781 -0.5625 4.769531 -0.65625 5.0625 -0.84375 C 5.351562 -1.03125 5.632812 -1.363281 5.90625 -1.84375 Z M 4.890625 -4.09375 C 4.890625 -4.34375 4.867188 -4.609375 4.828125 -4.890625 C 4.785156 -5.179688 4.71875 -5.421875 4.625 -5.609375 C 4.519531 -5.816406 4.375 -5.984375 4.1875 -6.109375 C 4.007812 -6.242188 3.78125 -6.3125 3.5 -6.3125 C 3.03125 -6.3125 2.640625 -6.113281 2.328125 -5.71875 C 2.015625 -5.332031 1.847656 -4.789062 1.828125 -4.09375 Z M 4.890625 -4.09375 "/></g></g></g></svg>